<svg xmlns="http://www.w3.org/2000/svg" id="그룹_1955" width="184" height="190" viewBox="0 0 150 210">
    <defs>
        <clipPath id="clip-path">
            <path id="사각형_2229" fill="none" d="M0 0H144V190H0z"/>
        </clipPath>
        <style>
            .cls-3{fill:none;stroke:#339ba3;stroke-miterlimit:10;stroke-width:2px}
        </style>
    </defs>
    <g id="그룹_1954" clip-path="url(#clip-path)">
        <path id="패스_2449" d="M76.514 52.614c7.838-.581 14.516 3.27 14.918 8.6.017.218.018.435.013.65a18.911 18.911 0 0 0 6.884-6.787c4.753-7.933 3.132-17.6-3.621-21.6-6.131-3.626-14.382-1.33-19.407 5.058" class="cls-3" transform="translate(-1.032 -.459)"/>
        <path id="패스_2450" d="M75 38.562a17.11 17.11 0 0 1 12.587-6.91c-2.722-5.373-7.855-8.834-13.462-8.418-7.837.581-13.631 8.516-12.938 17.723a17.554 17.554 0 0 0 7.661 13.593 17.555 17.555 0 0 1 2.474-1.056" class="cls-3" transform="translate(-.837 -.335)"/>
        <path id="패스_2451" d="M91.262 61.523c.4 5.334-5.628 10.129-13.466 10.71s-14.516-3.27-14.917-8.6 5.628-10.13 13.465-10.71 14.516 3.266 14.918 8.6z" class="cls-3" transform="translate(-.861 -.764)"/>
        <path id="패스_2452" d="M62.713 63.354c-.258-3.434 2.152-6.643 5.991-8.649a17.561 17.561 0 0 1-7.663-13.594 19.065 19.065 0 0 1 .845-7.3 12.9 12.9 0 0 0-8.951 2.775c-3.343 2.718-2.041 6.546-.955 11.315.905 3.977-2.029 6.683 2.232 12.328a13.561 13.561 0 0 0 9.218 5.677 6.856 6.856 0 0 1-.717-2.552z" class="cls-3" transform="translate(-.696 -.488)"/>
        <path id="선_58" d="M2.363 10.756L0 0" class="cls-3" transform="translate(66.689 42.96)"/>
        <path id="선_59" d="M0 0L0.896 11.572" class="cls-3" transform="translate(69.582 41.59)"/>
        <path id="선_60" d="M1.461 0L0 11.627" class="cls-3" transform="translate(71.794 41.14)"/>
        <path id="패스_2453" d="M65.536 68.892s-4.353 33.142 28.25 53.487" class="cls-3" transform="translate(-.895 -.995)"/>
        <path id="패스_2454" d="M67.75 91.483S57.42 74.49 32.275 83.622c0 0 20.561 30.591 35.475 7.861z" class="cls-3" transform="translate(-.442 -1.169)"/>
        <path id="선_61" d="M0 9.753L3.391 0" class="cls-3" transform="translate(72.85 42.7)"/>
        <path id="선_62" d="M0 8.139L4.828 0" class="cls-3" transform="translate(74.153 44.159)"/>
        <path id="패스_2455" d="M67.935 91.566s-4.2-2.513-22.145-4.94" class="cls-3" transform="translate(-.627 -1.251)"/>
        <path id="패스_2456" d="M82.085 94.262a13.573 13.573 0 0 0-5.324 12.911" class="cls-3" transform="translate(-1.05 -1.362)"/>
        <path id="패스_2457" d="M96.29 91.192c-3.639-4.483-9.1-6.109-12.186-3.634-.126.1-.245.21-.359.321a13.818 13.818 0 0 1 .2-7.1c1.9-6.543 7.952-10.554 13.522-8.96 5.057 1.448 7.976 7.017 7.053 12.927" class="cls-3" transform="translate(-1.142 -1.032)"/>
        <path id="패스_2458" d="M104.707 84.912A12.453 12.453 0 0 0 102.1 74.7c4.284-1.257 8.747-.258 11.351 2.949 3.639 4.483 2.265 11.583-3.07 15.859a13.112 13.112 0 0 1-11.229 2.761 12.817 12.817 0 0 0-.677-1.855" class="cls-3" transform="translate(-1.349 -1.071)"/>
        <path id="패스_2459" d="M84.085 87.778c-3.09 2.478-2.646 8.119.993 12.6s9.1 6.109 12.187 3.634 2.645-8.12-.994-12.6-9.094-6.112-12.186-3.634z" class="cls-3" transform="translate(-1.124 -1.251)"/>
        <path id="패스_2460" d="M97.452 104.056c1.99-1.595 2.512-4.5 1.662-7.567a13.117 13.117 0 0 0 11.228-2.762 14.2 14.2 0 0 0 3.524-4.132 9.383 9.383 0 0 1 3.013 6.184c.214 3.159-2.516 4.394-5.647 6.22-2.611 1.523-2.6 4.457-7.8 5.026a10.036 10.036 0 0 1-7.725-2.064 5.087 5.087 0 0 0 1.745-.905z" class="cls-3" transform="translate(-1.311 -1.294)"/>
        <path id="선_63" d="M0 4.164L7.018 0" class="cls-3" transform="translate(97.547 90.221)"/>
        <path id="선_64" d="M6.719 0L0 5.359" class="cls-3" transform="translate(97.127 87.983)"/>
        <path id="선_65" d="M5.56 0L0 6.647" class="cls-3" transform="translate(96.678 85.794)"/>
        <path id="선_66" d="M0 6.733L3.571 0" class="cls-3" transform="translate(96.314 84.985)"/>
        <path id="선_67" d="M0 6.686L1.972 0" class="cls-3" transform="translate(95.742 84.256)"/>
        <path id="패스_2461" d="M134.119 1H21.887A20.829 20.829 0 0 0 1 21.77v139.216a18.852 18.852 0 0 1 19.152-18.752h113.967a8.884 8.884 0 0 0 8.908-8.86V9.859A8.884 8.884 0 0 0 134.119 1z" class="cls-3" transform="translate(-.014 -.014)"/>
        <path id="패스_2462" d="M143.964 145.894v26.959a8.884 8.884 0 0 1-8.908 8.859H69.375" class="cls-3" transform="translate(-.95 -2.108)"/>
        <path id="패스_2463" d="M64.53 170.654h69.142V144.3" class="cls-3" transform="translate(-.884 -2.085)"/>
        <path id="선_68" d="M0 0L21.813 0" class="cls-3" transform="translate(16.769 168.57)"/>
        <path id="패스_2464" d="M39.117 157.282v33.231l12.532-7.669 12.532 7.669v-33.231z" class="cls-3" transform="translate(-.536 -2.272)"/>
        <path id="선_69" d="M0 0L0 116.31" class="cls-3" transform="translate(16.769 13.447)"/>
        <path id="선_70" d="M0 0L69.142 0" class="cls-3" transform="translate(63.646 161.789)"/>
        <path id="선_71" d="M0 0L21.813 0" class="cls-3" transform="translate(16.769 161.789)"/>
        <path id="선_72" d="M0 0L69.142 0" class="cls-3" transform="translate(63.646 155.01)"/>
        <path id="선_73" d="M0 0L21.813 0" class="cls-3" transform="translate(16.769 155.01)"/>
        <path id="선_74" d="M0 0L116.019 0" class="cls-3" transform="translate(16.769 148.229)"/>
        <path id="선_75" d="M0 0L0 3.873" class="cls-3" transform="translate(16.769 146.293)"/>
        <path id="선_76" d="M0 0L0 3.872" class="cls-3" transform="translate(16.769 153.073)"/>
        <path id="선_77" d="M0 0L0 3.872" class="cls-3" transform="translate(16.769 159.854)"/>
        <path id="선_78" d="M0 0L0 3.873" class="cls-3" transform="translate(16.769 166.633)"/>
        <path id="패스_2465" d="M1 162.914a19.1 19.1 0 0 0 19.151 19.044h12.306" class="cls-3" transform="translate(-.014 -2.353)"/>
    </g>
</svg>
