<svg xmlns="http://www.w3.org/2000/svg" id="그룹_1976" width="220" height="190" viewBox="0 0 220 190">
    <defs>
        <clipPath id="clip-path">
            <path id="사각형_2277" fill="none" d="M0 0H220V190H0z"/>
        </clipPath>
        <style>
            .cls-3,.cls-4{fill:none;stroke:#8e94ff;stroke-width:2px}.cls-3{stroke-miterlimit:10}.cls-4{stroke-linejoin:round}
        </style>
    </defs>
    <g id="그룹_1975" clip-path="url(#clip-path)">
        <path id="패스_2528" d="M41.077 116.926l3.238-3.185L31.226 100.8l.023-.022h-.023l-.035.016A53.3 53.3 0 0 0 1 148.828v41.231h94.517v-41.274a53.3 53.3 0 0 0-30.135-48h-.033l.033.033-17.124 16.852" class="cls-3" transform="translate(-.009 -1.05)"/>
        <path id="선_99" d="M0 0L0 41.682" class="cls-3" transform="translate(19.919 147.328)"/>
        <path id="선_100" d="M0 0L0 41.682" class="cls-3" transform="translate(76.579 147.328)"/>
        <path id="패스_2529" d="M48.606 94.7a27.161 27.161 0 0 1-9.069-1.555v7.665l9.069 8.975 9.131-8.984v-7.682a27.119 27.119 0 0 1-9.131 1.581z" class="cls-3" transform="translate(-.356 -.97)"/>
        <path id="패스_2530" d="M48.623 12.35a31.016 31.016 0 0 1 5.451.5 7.18 7.18 0 1 0-10.9 0 31.016 31.016 0 0 1 5.449-.5z" class="cls-3" transform="translate(-.373 -.01)"/>
        <path id="패스_2531" d="M48.657 12.43a31.069 31.069 0 0 1 3.315.2 3.423 3.423 0 0 0 .055-.556 3.371 3.371 0 1 0-6.742 0 3.317 3.317 0 0 0 .056.556 31.069 31.069 0 0 1 3.316-.2z" class="cls-3" transform="translate(-.408 -.091)"/>
        <path id="패스_2532" d="M77.6 33.375a30.816 30.816 0 0 0-58.357 0z" class="cls-3" transform="translate(-.173 -.13)"/>
        <path id="패스_2533" d="M21.254 47.642h-3.208L19 56.159c0 .038.011.073.016.11a8.779 8.779 0 0 1 1.377-.118c.289 0 .574.015.856.043z" class="cls-3" transform="translate(-.163 -.496)"/>
        <path id="패스_2534" d="M76.093 47.642v8.552c.282-.028.567-.043.856-.043a8.779 8.779 0 0 1 1.377.118c0-.037.011-.072.016-.11l.958-8.517z" class="cls-3" transform="translate(-.686 -.496)"/>
        <path id="패스_2535" d="M76.942 56.241c-.289 0-.575.016-.856.043v10.9a27.153 27.153 0 0 1-.809 6.577 8.841 8.841 0 1 0 1.665-17.524z" class="cls-3" transform="translate(-.678 -.586)"/>
        <path id="패스_2536" d="M21.195 67.187v-10.9c-.282-.027-.567-.043-.856-.043A8.843 8.843 0 1 0 22 73.764a27.14 27.14 0 0 1-.805-6.577z" class="cls-3" transform="translate(-.104 -.586)"/>
        <path id="패스_2537" d="M56.25 47.636l-1.76-.595v.595h-12.1v-.595l-1.76.595H21.282v19.455a27.158 27.158 0 0 0 54.316 0V47.636z" class="cls-3" transform="translate(-.192 -.49)"/>
        <ellipse id="타원_138" cx="1.843" cy="1.841" class="cls-3" rx="1.843" ry="1.841" transform="translate(33.028 57.165)"/>
        <ellipse id="타원_139" cx="1.843" cy="1.841" class="cls-3" rx="1.843" ry="1.841" transform="translate(59.784 57.165)"/>
        <path id="패스_2538" d="M42.455 47.042l-11.827 3.992-2.25 5.008 14.077-7.4z" class="cls-3" transform="translate(-.256 -.49)"/>
        <path id="패스_2539" d="M54.792 47.042l11.827 3.992 2.25 5.008-14.077-7.4z" class="cls-3" transform="translate(-.494 -.49)"/>
        <path id="패스_2540" d="M55.192 75.766c-1.49-1.661-3.277-2.314-6.6-2.314s-5.107.653-6.6 2.314a5.078 5.078 0 0 1-3.616 1.458 7.082 7.082 0 0 0 4.926 1.4c2.878-.31 3.3-1.034 5.287-1.034s2.409.724 5.287 1.034a7.082 7.082 0 0 0 4.926-1.4 5.078 5.078 0 0 1-3.61-1.458z" class="cls-3" transform="translate(-.346 -.765)"/>
        <path id="패스_2541" d="M50.638 57.49l.624 11.775a1.857 1.857 0 0 1-1.854 1.956h-1.489a1.858 1.858 0 0 1-1.854-1.956l.624-11.775" class="cls-3" transform="translate(-.415 -.599)"/>
        <path id="패스_2542" d="M35.42 96.841l-3.92 3.92L44.589 113.7l3.944-3.881z" class="cls-4" transform="translate(-.284 -1.009)"/>
        <path id="패스_2543" d="M48.623 117.629l17.123-16.858-3.931-3.933-20.374 20.047" class="cls-4" transform="translate(-.373 -1.009)"/>
        <path id="패스_2544" d="M48.891 118.281a37.386 37.386 0 0 1 11.458 1.869 2.182 2.182 0 0 1 1.343 2.552l-1.631 6.816a2.185 2.185 0 0 1-3.617 1.083 21.64 21.64 0 0 0-7.834-4.693" class="cls-4" transform="translate(-.438 -1.232)"/>
        <path id="패스_2545" d="M39.3 119.016s-15.324 3.286-16.06 48.86a2.187 2.187 0 0 0 1.409 2.075l5.954 2.261a2.182 2.182 0 0 0 2.957-2.045c-.028-9.582.364-37.94 5.863-44.781" class="cls-4" transform="translate(-.209 -1.24)"/>
        <rect id="사각형_2275" width="9.511" height="9.513" class="cls-3" rx="2.61" transform="translate(39.088 115.877)"/>
        <path id="패스_2546" d="M127.242 172.268l1.6-15.467-5.5-30.45a37.139 37.139 0 0 0-12.4 27.679v36.3h16.9a66.546 66.546 0 0 1-.6-18.062z" class="cls-3" transform="translate(-.999 -1.316)"/>
        <path id="패스_2547" d="M208.52 126.4l-5.492 30.4 1.6 15.467a66.548 66.548 0 0 1-.6 18.059h16.812v-36.32a37.141 37.141 0 0 0-12.32-27.606z" class="cls-3" transform="translate(-1.829 -1.317)"/>
        <path id="패스_2548" d="M176.775 107.555H171.1a14.767 14.767 0 0 1 .084 1.543c0 4.967-3.927 8.993-5.322 8.993s-5.321-4.027-5.321-8.993a15.051 15.051 0 0 1 .083-1.543h-5.612l-.976 3.38 11.826 11.7 11.891-11.7z" class="cls-3" transform="translate(-1.388 -1.12)"/>
        <path id="패스_2549" d="M195.607 69.2a29.58 29.58 0 0 1-2.232 8.332v9.192c.281.027.567.044.855.044a8.838 8.838 0 0 0 1.377-17.568z" class="cls-3" transform="translate(-1.742 -.721)"/>
        <path id="패스_2550" d="M128.779 77.928a8.842 8.842 0 0 0 8.841 8.843c.288 0 .574-.017.856-.044v-9.192a29.556 29.556 0 0 1-2.233-8.332 8.837 8.837 0 0 0-7.464 8.725z" class="cls-3" transform="translate(-1.16 -.721)"/>
        <path id="패스_2551" d="M138.564 60.486v27.251a13.218 13.218 0 0 0 .165 2.083l.97 6.088a13.236 13.236 0 0 0 13.07 11.157h7.716c.433-4.231 2.61-7.453 5.237-7.453s4.8 3.221 5.237 7.453h7.716a13.238 13.238 0 0 0 13.071-11.157l.969-6.088a13.337 13.337 0 0 0 .165-2.083V60.486z" class="cls-3" transform="translate(-1.248 -.63)"/>
        <ellipse id="타원_140" cx="1.843" cy="1.841" class="cls-3" rx="1.843" ry="1.841" transform="translate(149.253 69.875)"/>
        <ellipse id="타원_141" cx="1.843" cy="1.841" class="cls-3" rx="1.843" ry="1.841" transform="translate(176.008 69.875)"/>
        <path id="패스_2552" d="M159.737 68.885l-11.827-3.992-2.25-5.008 14.077 7.4z" class="cls-3" transform="translate(-1.312 -.624)"/>
        <path id="패스_2553" d="M172.074 68.885l11.826-3.992 2.25-5.008-14.077 7.4z" class="cls-3" transform="translate(-1.55 -.624)"/>
        <path id="패스_2554" d="M154.007 93.951c4.256-.458 4.886-1.53 7.821-1.53V86.3c-4.91 0-7.554.966-9.759 3.422a7.506 7.506 0 0 1-5.349 2.155 10.478 10.478 0 0 0 7.287 2.074z" class="cls-3" transform="translate(-1.322 -.899)"/>
        <path id="패스_2555" d="M177.795 93.951c-4.256-.458-4.886-1.53-7.821-1.53V86.3c4.91 0 7.554.966 9.759 3.422a7.506 7.506 0 0 0 5.349 2.155 10.479 10.479 0 0 1-7.287 2.074z" class="cls-3" transform="translate(-1.531 -.899)"/>
        <path id="패스_2556" d="M170 74.334l.947 5.779a2.91 2.91 0 0 1-2.872 3.382h-4.306a2.911 2.911 0 0 1-2.873-3.382l.948-5.779" class="cls-3" transform="translate(-1.449 -.774)"/>
        <path id="사각형_2276" d="M0 0H64.106V5.814H0z" class="cls-3" transform="translate(132.421 54.042)"/>
        <path id="패스_2557" d="M143.01 40.46a11.35 11.35 0 0 0 11.306-10.409h.1a11.345 11.345 0 0 0 22.612 0h.1a11.349 11.349 0 0 0 14.192 10.037L193.3 13a9.273 9.273 0 0 1-18.256-1.415h-.078a9.276 9.276 0 0 1-18.488 0h-.078A9.273 9.273 0 0 1 138.14 13l1.985 27.091a11.316 11.316 0 0 0 2.885.369z" class="cls-3" transform="translate(-1.245 -.121)"/>
        <path id="패스_2558" d="M188.371 40.654a11.35 11.35 0 0 1-11.306-10.409h-.1a11.345 11.345 0 0 1-22.612 0h-.1a11.343 11.343 0 0 1-22.33 1.73l2.918 22.382h61.628l2.918-22.382a11.35 11.35 0 0 1-11.016 8.679z" class="cls-3" transform="translate(-1.189 -.315)"/>
        <path id="패스_2559" d="M202.308 156.668l5.941-32.889-25.543-10.133L158.4 137.7v-7.93l3.237-3.184-13.088-12.94-25.543 10.133 5.941 32.889-1.6 15.467a66.547 66.547 0 0 0 .6 18.059h75.356a66.546 66.546 0 0 0 .6-18.059z" class="cls-3" transform="translate(-1.108 -1.184)"/>
        <path id="패스_2560" d="M152.7 109.684l-3.919 3.921 13.088 12.939 3.944-3.881z" class="cls-4" transform="translate(-1.34 -1.143)"/>
        <path id="패스_2561" d="M179.1 109.682l-20.373 20.047v7.931l24.305-24.044z" class="cls-4" transform="translate(-1.43 -1.143)"/>
        <path id="패스_2562" d="M171.242 109.019c0 4.968-3.927 8.994-5.322 8.994s-5.321-4.027-5.321-8.994 2.382-9 5.321-9 5.322 4.032 5.322 9z" class="cls-3" transform="translate(-1.447 -1.042)"/>
        <path id="패스_2563" d="M17.593 33.6v13.9h23l1.76-.595v.595h12.1v-.6l1.76.595h23V33.6z" class="cls-3" transform="translate(-.158 -.35)"/>
        <path id="패스_2564" d="M61.962 96.84H57.9v3.995z" class="cls-4" transform="translate(-.522 -1.009)"/>
        <path id="패스_2565" d="M35.456 96.841h4.075v4z" class="cls-4" transform="translate(-.319 -1.009)"/>
        <path id="패스_2566" d="M193.374 60.486v16.958A29.578 29.578 0 0 0 195.623 69l.959-8.517z" class="cls-3" transform="translate(-1.742 -.63)"/>
        <path id="패스_2567" d="M138.535 60.486h-3.208l.958 8.514a29.611 29.611 0 0 0 2.25 8.441z" class="cls-3" transform="translate(-1.219 -.63)"/>
    </g>
</svg>
