<svg xmlns="http://www.w3.org/2000/svg" id="그룹_1953" width="166" height="190" viewBox="0 0 166 210">
    <defs>
        <clipPath id="clip-path">
            <path id="사각형_2228" fill="none" d="M0 0H166V190H0z"/>
        </clipPath>
        <style>
            .cls-3{fill:none;stroke:#1696e5;stroke-miterlimit:10;stroke-width:2px}
        </style>
    </defs>
    <g id="그룹_1952" clip-path="url(#clip-path)">
        <path id="패스_2350" d="M84.425 108.223a11.207 11.207 0 0 1 10.275 6.729 11.206 11.206 0 1 0-20.545 0 11.206 11.206 0 0 1 10.27-6.729z" class="cls-3" transform="translate(-1.424 -1.281)"/>
        <path id="패스_2351" d="M94.091 105.136a11.213 11.213 0 0 0-19.7 0l-10.514-5.362v11.2a20.366 20.366 0 0 0 40.731 0v-11.2z" class="cls-3" transform="translate(-1.242 -1.281)"/>
        <path id="패스_2352" d="M84.272 68.41s-17.174.017-18.891 5.516c0 0 8.26.6 18.891.6s18.891-.6 18.891-.6c-1.716-5.499-18.891-5.516-18.891-5.516z" class="cls-3" transform="translate(-1.272 -.882)"/>
        <path id="패스_2353" d="M75.77 88.2a1.382 1.382 0 1 1-1.383-1.381A1.382 1.382 0 0 1 75.77 88.2z" class="cls-3" transform="translate(-1.42 -1.12)"/>
        <path id="패스_2354" d="M96.232 88.2a1.382 1.382 0 1 1-1.383-1.381 1.382 1.382 0 0 1 1.383 1.381z" class="cls-3" transform="translate(-1.818 -1.12)"/>
        <path id="패스_2355" d="M81.3 83.628l-9.277-3.549-3.848 1.462 12.48 4.082z" class="cls-3" transform="translate(-1.326 -1.033)"/>
        <path id="패스_2356" d="M87.731 83.628l9.277-3.549 3.848 1.462-12.48 4.082z" class="cls-3" transform="translate(-1.706 -1.033)"/>
        <path id="패스_2357" d="M65.351 74l-1.474 3.5v21.948" class="cls-3" transform="translate(-1.243 -.955)"/>
        <path id="패스_2358" d="M103.913 74l1.474 3.5v21.948" class="cls-3" transform="translate(-2.021 -.955)"/>
        <path id="선_56" d="M21.727 0L0 51.613" class="cls-3" transform="translate(42.382 73.044)"/>
        <path id="선_57" d="M0 0L21.727 51.613" class="cls-3" transform="translate(101.891 73.044)"/>
        <path id="패스_2359" d="M84.19 41.54a23.014 23.014 0 0 0-23.021 23.006v9.033H65.3c1.717-5.5 18.891-5.516 18.891-5.516s17.174.017 18.891 5.516h4.13v-9.033A23.014 23.014 0 0 0 84.19 41.54z" class="cls-3" transform="translate(-1.19 -.536)"/>
        <path id="패스_2360" d="M131.306 125.986L106.706 74h-4.13s-8.26.6-18.891.6-18.893-.6-18.893-.6h-4.129l-24.6 51.988a9.258 9.258 0 0 0 .663 9.1c1.213-.968 2.46-1.9 3.748-2.775l23.623-16.1a20.348 20.348 0 0 1-.779-5.569v-11.2l10.518 5.363a11.213 11.213 0 0 1 19.7 0l10.517-5.362v11.2a20.347 20.347 0 0 1-.778 5.569l23.623 16.1c1.287.878 2.534 1.806 3.747 2.775a9.252 9.252 0 0 0 .664-9.1z" class="cls-3" transform="translate(-.684 -.955)"/>
        <path id="패스_2361" d="M81.429 114.423a5.21 5.21 0 0 0 1.789-2.524l.289-.031a9.482 9.482 0 0 1 2.022 0l.289.031a5.236 5.236 0 0 0 1.778 2.529 6.839 6.839 0 0 0 3.422-4 11.167 11.167 0 0 0-13 0 6.843 6.843 0 0 0 3.411 3.995z" class="cls-3" transform="translate(-1.518 -1.398)"/>
        <path id="사각형_2225" d="M0 0H5.342V49.482H0z" class="cls-3" transform="translate(80.329 139.531)"/>
        <path id="패스_2362" d="M95.131 166.8a10.7 10.7 0 1 1-10.7-10.689 10.693 10.693 0 0 1 10.7 10.689z" class="cls-3" transform="translate(-1.434 -2.014)"/>
        <ellipse id="타원_133" cx="7.641" cy="7.636" class="cls-3" rx="7.641" ry="7.636" transform="translate(75.359 157.15)"/>
        <path id="패스_2363" d="M81.52 45.911v19.323c-1.432.1-3.34.271-5.47.6v-4.886l-4.95 1.064v4.806a29.427 29.427 0 0 0-9.933 4.256" class="cls-3" transform="translate(-1.19 -.592)"/>
        <path id="패스_2364" d="M87.37 45.911v19.323c1.432.1 3.34.271 5.47.6v-4.886l4.948 1.063v4.806a29.427 29.427 0 0 1 9.933 4.256" class="cls-3" transform="translate(-1.699 -.592)"/>
        <path id="패스_2365" d="M86.774 18.817V3.876L84.6 1.482l-2.17 2.394v14.941a15.269 15.269 0 0 1 4.34 0z" class="cls-3" transform="translate(-1.603 -.019)"/>
        <path id="패스_2366" d="M84.6 41.3c.732 0 1.455.038 2.17.1V22.9a7.775 7.775 0 0 0-4.34 0v18.5c.719-.067 1.441-.1 2.17-.1z" class="cls-3" transform="translate(-1.603 -.291)"/>
        <path id="패스_2367" d="M82.3 14.622l-4.146-2.07-2.567-5.5.853-2.763 2.667 1.12L81.158 9.8H82.3z" class="cls-3" transform="translate(-1.47 -.055)"/>
        <path id="패스_2368" d="M86.86 14.622l4.146-2.07 2.567-5.5-.853-2.758-2.668 1.12L88 9.805h-1.14z" class="cls-3" transform="translate(-1.69 -.055)"/>
        <path id="패스_2369" d="M84.474 41.248a23.042 23.042 0 0 1 6.656.98 43.353 43.353 0 0 0 2.05-12.594c0-8.884-3.9-10.747-8.706-10.747s-8.706 1.863-8.706 10.747a43.353 43.353 0 0 0 2.05 12.594 23.047 23.047 0 0 1 6.656-.98z" class="cls-3" transform="translate(-1.474 -.244)"/>
        <path id="패스_2370" d="M80.055 34.658A25.277 25.277 0 0 1 79.349 29c0-5.3 2.326-6.413 5.195-6.413S89.739 23.7 89.739 29" class="cls-3" transform="translate(-1.543 -.291)"/>
        <path id="패스_2371" d="M130.222 191.115l2.087-7.788a58.586 58.586 0 0 0 2-15.162v-5.171" class="cls-3" transform="translate(-2.533 -2.103)"/>
        <path id="사각형_2226" d="M0 0H2.671V49.482H0z" class="cls-3" transform="translate(97.67 139.531)"/>
        <path id="패스_2372" d="M113.162 145.016a3.83 3.83 0 1 1-4.924-3.666 12.489 12.489 0 0 0 1.624-.12 3.826 3.826 0 0 1 3.3 3.786z" class="cls-3" transform="translate(-2.052 -1.822)"/>
        <path id="패스_2373" d="M110.934 150.5a1.555 1.555 0 1 0-1.555 1.555 1.555 1.555 0 0 0 1.555-1.555z" class="cls-3" transform="translate(-2.097 -1.921)"/>
        <ellipse id="타원_134" cx="1.555" cy="1.554" class="cls-3" rx="1.555" ry="1.554" transform="translate(100.342 141.639)"/>
        <path id="패스_2374" d="M114.87 143.49a1.546 1.546 0 0 1 .977.354c.145.518.313 1.068.507 1.644a1.552 1.552 0 1 1-1.484-2z" class="cls-3" transform="translate(-2.204 -1.851)"/>
        <path id="패스_2375" d="M105.5 155.918a3.83 3.83 0 1 0 3.829-3.827 3.828 3.828 0 0 0-3.829 3.827z" class="cls-3" transform="translate(-2.052 -1.962)"/>
        <path id="패스_2376" d="M110.934 161.4a1.555 1.555 0 1 0-1.555 1.554 1.555 1.555 0 0 0 1.555-1.554z" class="cls-3" transform="translate(-2.097 -2.062)"/>
        <path id="패스_2377" d="M103.887 154.393a1.554 1.554 0 1 0 1.555 1.555 1.555 1.555 0 0 0-1.555-1.555z" class="cls-3" transform="translate(-1.991 -1.992)"/>
        <path id="패스_2378" d="M114.87 154.393a1.554 1.554 0 1 0 1.555 1.555 1.555 1.555 0 0 0-1.555-1.555z" class="cls-3" transform="translate(-2.204 -1.992)"/>
        <path id="패스_2379" d="M119.51 152.178a25.362 25.362 0 0 0 4.336 5.225 3.829 3.829 0 1 1-4.336-5.225z" class="cls-3" transform="translate(-2.266 -1.963)"/>
        <path id="패스_2380" d="M121.916 161.4a1.555 1.555 0 1 0-1.555 1.554 1.555 1.555 0 0 0 1.555-1.554z" class="cls-3" transform="translate(-2.311 -2.062)"/>
        <path id="패스_2381" d="M131.344 162.972a1.555 1.555 0 0 1-1.555-1.554c0-.023 0-.041.006-.064a24.64 24.64 0 0 0 2.7 1.1 1.544 1.544 0 0 1-1.151.518z" class="cls-3" transform="translate(-2.525 -2.081)"/>
        <path id="패스_2382" d="M105.5 166.82a3.83 3.83 0 1 0 3.829-3.827 3.828 3.828 0 0 0-3.829 3.827z" class="cls-3" transform="translate(-2.052 -2.103)"/>
        <path id="패스_2383" d="M110.934 172.3a1.555 1.555 0 1 0-1.555 1.555 1.555 1.555 0 0 0 1.555-1.555z" class="cls-3" transform="translate(-2.097 -2.203)"/>
        <path id="패스_2384" d="M103.887 165.3a1.554 1.554 0 1 0 1.555 1.554 1.555 1.555 0 0 0-1.555-1.554z" class="cls-3" transform="translate(-1.991 -2.132)"/>
        <path id="패스_2385" d="M114.87 165.3a1.554 1.554 0 1 0 1.555 1.554 1.555 1.555 0 0 0-1.555-1.554z" class="cls-3" transform="translate(-2.204 -2.132)"/>
        <path id="패스_2386" d="M116.487 166.82a3.83 3.83 0 1 0 3.829-3.827 3.828 3.828 0 0 0-3.829 3.827z" class="cls-3" transform="translate(-2.266 -2.103)"/>
        <path id="패스_2387" d="M121.916 172.3a1.555 1.555 0 1 0-1.555 1.555 1.555 1.555 0 0 0 1.555-1.555z" class="cls-3" transform="translate(-2.311 -2.203)"/>
        <path id="패스_2388" d="M125.852 165.3a1.554 1.554 0 1 0 1.555 1.554 1.555 1.555 0 0 0-1.555-1.554z" class="cls-3" transform="translate(-2.418 -2.132)"/>
        <path id="패스_2389" d="M131.3 162.993a3.821 3.821 0 0 1 2.951 1.39v3.782c0 .371-.011.742-.018 1.113a3.828 3.828 0 1 1-2.934-6.285z" class="cls-3" transform="translate(-2.479 -2.103)"/>
        <path id="패스_2390" d="M132.9 172.3a1.555 1.555 0 1 0-1.555 1.555 1.555 1.555 0 0 0 1.555-1.555z" class="cls-3" transform="translate(-2.525 -2.203)"/>
        <path id="패스_2391" d="M105.5 177.724a3.83 3.83 0 1 0 3.829-3.827 3.829 3.829 0 0 0-3.829 3.827z" class="cls-3" transform="translate(-2.052 -2.243)"/>
        <path id="패스_2392" d="M110.934 183.2a1.555 1.555 0 1 0-1.555 1.555 1.555 1.555 0 0 0 1.555-1.555z" class="cls-3" transform="translate(-2.097 -2.343)"/>
        <path id="패스_2393" d="M103.887 176.2a1.554 1.554 0 1 0 1.555 1.555 1.555 1.555 0 0 0-1.555-1.555z" class="cls-3" transform="translate(-1.991 -2.273)"/>
        <path id="패스_2394" d="M114.87 176.2a1.554 1.554 0 1 0 1.555 1.555 1.555 1.555 0 0 0-1.555-1.555z" class="cls-3" transform="translate(-2.204 -2.273)"/>
        <path id="패스_2395" d="M116.487 177.724a3.83 3.83 0 1 0 3.829-3.827 3.829 3.829 0 0 0-3.829 3.827z" class="cls-3" transform="translate(-2.266 -2.243)"/>
        <path id="패스_2396" d="M121.916 183.2a1.555 1.555 0 1 0-1.555 1.555 1.555 1.555 0 0 0 1.555-1.555z" class="cls-3" transform="translate(-2.311 -2.343)"/>
        <path id="패스_2397" d="M125.852 176.2a1.554 1.554 0 1 0 1.555 1.555 1.555 1.555 0 0 0-1.555-1.555z" class="cls-3" transform="translate(-2.418 -2.273)"/>
        <path id="패스_2398" d="M131.3 173.9a3.815 3.815 0 0 1 2.573 1 58.77 58.77 0 0 1-1.073 6.35 3.827 3.827 0 1 1-1.5-7.348z" class="cls-3" transform="translate(-2.479 -2.243)"/>
        <path id="패스_2399" d="M129.789 183.2a1.553 1.553 0 0 1 2.826-.891c-.1.419-.2.838-.314 1.255l-.276 1.028a1.539 1.539 0 0 1-.681.164 1.555 1.555 0 0 1-1.555-1.556z" class="cls-3" transform="translate(-2.525 -2.343)"/>
        <path id="패스_2400" d="M105.5 188.626a3.83 3.83 0 1 1 6.467 2.771H106.7a3.815 3.815 0 0 1-1.2-2.771z" class="cls-3" transform="translate(-2.052 -2.384)"/>
        <path id="패스_2401" d="M103.887 187.1a1.554 1.554 0 1 0 1.555 1.554 1.555 1.555 0 0 0-1.555-1.554z" class="cls-3" transform="translate(-1.991 -2.414)"/>
        <path id="패스_2402" d="M114.87 187.1a1.554 1.554 0 1 0 1.555 1.554 1.555 1.555 0 0 0-1.555-1.554z" class="cls-3" transform="translate(-2.204 -2.414)"/>
        <path id="패스_2403" d="M116.487 188.626a3.83 3.83 0 1 1 6.467 2.771h-5.274a3.811 3.811 0 0 1-1.193-2.771z" class="cls-3" transform="translate(-2.266 -2.384)"/>
        <path id="패스_2404" d="M125.852 187.1a1.554 1.554 0 1 0 1.555 1.554 1.555 1.555 0 0 0-1.555-1.554z" class="cls-3" transform="translate(-2.418 -2.414)"/>
        <path id="패스_2405" d="M127.47 188.626a3.805 3.805 0 0 1 4.452-3.771l-1.753 6.542h-1.506a3.811 3.811 0 0 1-1.193-2.771z" class="cls-3" transform="translate(-2.479 -2.384)"/>
        <path id="패스_2406" d="M114.992 139.394s2.155 24.535 27.565 24.334c0 0-3.093 27.083 24.066 27.083" class="cls-3" transform="translate(-2.237 -1.798)"/>
        <path id="패스_2407" d="M118.355 136.3c.287 2.428 3.542 24.306 27.542 24.116 0 0-2.686 23.512 18.915 26.722" class="cls-3" transform="translate(-2.302 -1.758)"/>
        <path id="패스_2408" d="M146.413 155.646a61.966 61.966 0 0 0-20.17-22.781l-23.623-16.1a20.368 20.368 0 0 1-39.175 0l-23.623 16.1a61.966 61.966 0 0 0-20.17 22.781l-18 34.873h162.766z" class="cls-3" transform="translate(-.032 -1.506)"/>
        <path id="패스_2409" d="M38.99 191.115l-2.09-7.788a58.544 58.544 0 0 1-2-15.162v-5.171" class="cls-3" transform="translate(-.679 -2.103)"/>
        <path id="사각형_2227" d="M0 0H2.671V49.482H0z" class="cls-3" transform="translate(65.659 139.531)"/>
        <path id="패스_2410" d="M55.979 145.016a3.83 3.83 0 1 0 4.925-3.666 12.517 12.517 0 0 1-1.625-.12 3.826 3.826 0 0 0-3.3 3.786z" class="cls-3" transform="translate(-1.089 -1.822)"/>
        <path id="패스_2411" d="M58.3 150.5a1.555 1.555 0 1 1 1.555 1.555A1.555 1.555 0 0 1 58.3 150.5z" class="cls-3" transform="translate(-1.134 -1.921)"/>
        <ellipse id="타원_135" cx="1.555" cy="1.554" class="cls-3" rx="1.555" ry="1.554" transform="translate(62.549 141.639)"/>
        <path id="패스_2412" d="M54.364 143.49a1.551 1.551 0 0 0-.978.354c-.144.518-.312 1.068-.506 1.644a1.552 1.552 0 1 0 1.484-2z" class="cls-3" transform="translate(-1.029 -1.851)"/>
        <path id="패스_2413" d="M63.637 155.918a3.83 3.83 0 1 1-3.829-3.827 3.827 3.827 0 0 1 3.829 3.827z" class="cls-3" transform="translate(-1.089 -1.962)"/>
        <path id="패스_2414" d="M58.3 161.4a1.555 1.555 0 1 1 1.555 1.554A1.555 1.555 0 0 1 58.3 161.4z" class="cls-3" transform="translate(-1.134 -2.062)"/>
        <path id="패스_2415" d="M65.345 154.393a1.554 1.554 0 1 1-1.555 1.555 1.555 1.555 0 0 1 1.555-1.555z" class="cls-3" transform="translate(-1.241 -1.992)"/>
        <path id="패스_2416" d="M54.362 154.393a1.554 1.554 0 1 1-1.555 1.555 1.555 1.555 0 0 1 1.555-1.555z" class="cls-3" transform="translate(-1.027 -1.992)"/>
        <path id="패스_2417" d="M49.637 152.178A25.362 25.362 0 0 1 45.3 157.4a3.829 3.829 0 1 0 4.336-5.225z" class="cls-3" transform="translate(-.881 -1.963)"/>
        <path id="패스_2418" d="M47.315 161.4a1.555 1.555 0 1 1 1.555 1.554 1.555 1.555 0 0 1-1.555-1.554z" class="cls-3" transform="translate(-.92 -2.062)"/>
        <path id="패스_2419" d="M37.9 162.972a1.555 1.555 0 0 0 1.555-1.554c0-.023 0-.041-.006-.064a24.64 24.64 0 0 1-2.7 1.1 1.544 1.544 0 0 0 1.151.518z" class="cls-3" transform="translate(-.715 -2.081)"/>
        <path id="패스_2420" d="M63.637 166.82a3.83 3.83 0 1 1-3.829-3.827 3.827 3.827 0 0 1 3.829 3.827z" class="cls-3" transform="translate(-1.089 -2.103)"/>
        <path id="패스_2421" d="M58.3 172.3a1.555 1.555 0 1 1 1.555 1.555A1.555 1.555 0 0 1 58.3 172.3z" class="cls-3" transform="translate(-1.134 -2.203)"/>
        <path id="패스_2422" d="M65.345 165.3a1.554 1.554 0 1 1-1.555 1.554 1.555 1.555 0 0 1 1.555-1.554z" class="cls-3" transform="translate(-1.241 -2.132)"/>
        <path id="패스_2423" d="M54.362 165.3a1.554 1.554 0 1 1-1.555 1.554 1.555 1.555 0 0 1 1.555-1.554z" class="cls-3" transform="translate(-1.027 -2.132)"/>
        <path id="패스_2424" d="M52.655 166.82a3.83 3.83 0 1 1-3.829-3.827 3.828 3.828 0 0 1 3.829 3.827z" class="cls-3" transform="translate(-.875 -2.103)"/>
        <path id="패스_2425" d="M47.315 172.3a1.555 1.555 0 1 1 1.555 1.555 1.555 1.555 0 0 1-1.555-1.555z" class="cls-3" transform="translate(-.92 -2.203)"/>
        <path id="패스_2426" d="M43.379 165.3a1.554 1.554 0 1 1-1.555 1.554 1.555 1.555 0 0 1 1.555-1.554z" class="cls-3" transform="translate(-.814 -2.132)"/>
        <path id="패스_2427" d="M37.859 162.993a3.821 3.821 0 0 0-2.951 1.39v3.782c0 .371.011.742.018 1.113a3.828 3.828 0 1 0 2.934-6.285z" class="cls-3" transform="translate(-.679 -2.103)"/>
        <path id="패스_2428" d="M36.333 172.3a1.555 1.555 0 1 1 1.555 1.555 1.555 1.555 0 0 1-1.555-1.555z" class="cls-3" transform="translate(-.707 -2.203)"/>
        <path id="패스_2429" d="M63.637 177.724a3.83 3.83 0 1 1-3.829-3.827 3.828 3.828 0 0 1 3.829 3.827z" class="cls-3" transform="translate(-1.089 -2.243)"/>
        <path id="패스_2430" d="M58.3 183.2a1.555 1.555 0 1 1 1.555 1.555A1.555 1.555 0 0 1 58.3 183.2z" class="cls-3" transform="translate(-1.134 -2.343)"/>
        <path id="패스_2431" d="M65.345 176.2a1.554 1.554 0 1 1-1.555 1.555 1.555 1.555 0 0 1 1.555-1.555z" class="cls-3" transform="translate(-1.241 -2.273)"/>
        <path id="패스_2432" d="M54.362 176.2a1.554 1.554 0 1 1-1.555 1.555 1.555 1.555 0 0 1 1.555-1.555z" class="cls-3" transform="translate(-1.027 -2.273)"/>
        <path id="패스_2433" d="M52.655 177.724a3.83 3.83 0 1 1-3.829-3.827 3.829 3.829 0 0 1 3.829 3.827z" class="cls-3" transform="translate(-.875 -2.243)"/>
        <path id="패스_2434" d="M47.315 183.2a1.555 1.555 0 1 1 1.555 1.555 1.555 1.555 0 0 1-1.555-1.555z" class="cls-3" transform="translate(-.92 -2.343)"/>
        <path id="패스_2435" d="M43.379 176.2a1.554 1.554 0 1 1-1.555 1.555 1.555 1.555 0 0 1 1.555-1.555z" class="cls-3" transform="translate(-.814 -2.273)"/>
        <path id="패스_2436" d="M37.867 173.9a3.815 3.815 0 0 0-2.573 1 58.774 58.774 0 0 0 1.073 6.35 3.827 3.827 0 1 0 1.5-7.348z" class="cls-3" transform="translate(-.687 -2.243)"/>
        <path id="패스_2437" d="M39.449 183.2a1.553 1.553 0 0 0-2.826-.891c.1.419.2.838.315 1.255l.275 1.028a1.532 1.532 0 0 0 .681.164 1.556 1.556 0 0 0 1.555-1.556z" class="cls-3" transform="translate(-.712 -2.343)"/>
        <path id="패스_2438" d="M63.637 188.626a3.83 3.83 0 1 0-6.466 2.771h5.273a3.811 3.811 0 0 0 1.193-2.771z" class="cls-3" transform="translate(-1.089 -2.384)"/>
        <path id="패스_2439" d="M65.345 187.1a1.554 1.554 0 1 1-1.555 1.554 1.555 1.555 0 0 1 1.555-1.554z" class="cls-3" transform="translate(-1.241 -2.414)"/>
        <path id="패스_2440" d="M54.362 187.1a1.554 1.554 0 1 1-1.555 1.554 1.555 1.555 0 0 1 1.555-1.554z" class="cls-3" transform="translate(-1.027 -2.414)"/>
        <path id="패스_2441" d="M52.655 188.626a3.83 3.83 0 1 0-6.467 2.771h5.274a3.815 3.815 0 0 0 1.193-2.771z" class="cls-3" transform="translate(-.875 -2.384)"/>
        <path id="패스_2442" d="M43.379 187.1a1.554 1.554 0 1 1-1.555 1.554 1.555 1.555 0 0 1 1.555-1.554z" class="cls-3" transform="translate(-.814 -2.414)"/>
        <path id="패스_2443" d="M41.736 188.626a3.805 3.805 0 0 0-4.452-3.771l1.752 6.542h1.507a3.811 3.811 0 0 0 1.193-2.771z" class="cls-3" transform="translate(-.725 -2.384)"/>
        <path id="패스_2444" d="M53.278 139.394s-2.155 24.535-27.565 24.334c0 0 3.093 27.083-24.066 27.083" class="cls-3" transform="translate(-.032 -1.798)"/>
        <path id="패스_2445" d="M50.017 136.3c-.287 2.428-3.542 24.306-27.542 24.116 0 0 2.685 23.512-18.915 26.722" class="cls-3" transform="translate(-.069 -1.758)"/>
        <path id="패스_2446" d="M103.48 116.766a20.368 20.368 0 0 1-39.175 0L45.839 129.35l5 6.7a12.416 12.416 0 0 0 9.949 4.988h46.2a12.413 12.413 0 0 0 9.95-4.988l5-6.7z" class="cls-3" transform="translate(-.892 -1.506)"/>
        <path id="패스_2447" d="M86.089 87.739l.468 8.823a1.391 1.391 0 0 1-1.389 1.465h-1.119a1.393 1.393 0 0 1-1.39-1.465l.469-8.823" class="cls-3" transform="translate(-1.608 -1.132)"/>
        <path id="패스_2448" d="M88.611 111.5a1.742 1.742 0 0 1-1.487.574l-1.546-.165a9.482 9.482 0 0 0-2.022 0l-1.546.165a1.742 1.742 0 0 1-1.487-.574" class="cls-3" transform="translate(-1.566 -1.438)"/>
    </g>
</svg>
