<svg xmlns="http://www.w3.org/2000/svg" id="그룹_1974" width="180" height="190" viewBox="0 0 180 210">
    <defs>
        <clipPath id="clip-path">
            <path id="사각형_2254" fill="none" d="M0 0H180V190H0z"/>
        </clipPath>
        <style>
            .cls-3{fill:none}.cls-2{clip-path:url(#clip-path)}.cls-3{stroke:#46bf83;stroke-miterlimit:10;stroke-width:2px}
        </style>
    </defs>
    <g id="그룹_1967">
        <g id="그룹_1966" class="cls-2">
            <path id="패스_2518" d="M82.972 190.209h31.077v-75.147H67.433v75.147z" class="cls-3" transform="translate(-.741 -1.199)"/>
        </g>
    </g>
    <path id="선_90" d="M0 0L5.237 0" class="cls-3" transform="translate(51.136 162.814)"/>
    <path id="사각형_2255" d="M0 0H36.66V13.093H0z" class="cls-3" transform="translate(71.67 100.829)"/>
    <path id="사각형_2256" d="M0 0H15.711V13.093H0z" class="cls-3" transform="translate(82.144 87.882)"/>
    <path id="사각형_2257" d="M0 0H26.186V3.688H0z" class="cls-3" transform="translate(76.907 126.794)"/>
    <path id="선_91" d="M0 0L5.237 0" class="cls-3" transform="translate(51.136 132.002)"/>
    <path id="선_92" d="M0 0L5.237 0" class="cls-3" transform="translate(51.136 121.637)"/>
    <path id="선_93" d="M0 0L5.237 0" class="cls-3" transform="translate(51.136 142.367)"/>
    <path id="선_94" d="M0 0L5.237 0" class="cls-3" transform="translate(51.136 152.34)"/>
    <path id="선_95" d="M0 0L5.237 0" class="cls-3" transform="translate(51.136 173.289)"/>
    <g id="그룹_1969">
        <g id="그룹_1968" class="cls-2">
            <path id="패스_2519" d="M114.567 190.263h25.9V120.3h-25.9" class="cls-3" transform="translate(-1.259 -1.253)"/>
        </g>
    </g>
    <path id="사각형_2259" d="M0 0H4.04V11.367H0z" class="cls-3" transform="translate(129.517 126.736)"/>
    <path id="사각형_2260" d="M0 0H4.04V11.367H0z" class="cls-3" transform="translate(118.939 126.736)"/>
    <path id="사각형_2261" d="M0 0H4.04V11.367H0z" class="cls-3" transform="translate(129.517 144.95)"/>
    <path id="사각형_2262" d="M0 0H4.04V11.367H0z" class="cls-3" transform="translate(118.939 144.95)"/>
    <path id="사각형_2263" d="M0 0H4.04V11.367H0z" class="cls-3" transform="translate(129.517 162.991)"/>
    <path id="사각형_2264" d="M0 0H4.04V11.367H0z" class="cls-3" transform="translate(118.939 162.991)"/>
    <path id="선_96" d="M0 20.949L0 0" class="cls-3" transform="translate(90 67.133)"/>
    <path id="패스_2520" d="M109.33 107.206h26.186V120.3" class="cls-3" transform="translate(-1.403 -1.198)"/>
    <g id="그룹_1971">
        <g id="그룹_1970" class="cls-2">
            <path id="패스_2521" d="M72.325 96.514V78.375l-2.589-2.591-28.487 28.5V189.8h23.307" class="cls-3" transform="translate(-.453 -.789)"/>
        </g>
    </g>
    <path id="사각형_2266" d="M0 0H26.186V3.688H0z" class="cls-3" transform="translate(76.907 141.474)"/>
    <path id="사각형_2267" d="M0 0H26.186V3.688H0z" class="cls-3" transform="translate(76.907 155.832)"/>
    <path id="사각형_2268" d="M0 0H26.186V3.688H0z" class="cls-3" transform="translate(76.907 170.671)"/>
    <g id="그룹_1973">
        <g id="그룹_1972" class="cls-2">
            <path id="사각형_2269" d="M0 0H8.311V7.32H0z" class="cls-3" transform="translate(85.845 181.689)"/>
            <path id="사각형_2270" d="M0 0H5.179V7.32H0z" class="cls-3" transform="translate(51.154 181.689)"/>
            <path id="사각형_2271" d="M0 0H5.179V7.32H0z" class="cls-3" transform="translate(123.667 181.689)"/>
            <path id="패스_2522" d="M17.752 82.191c3.683-1.379 5.8-6.445 5.8-10.154v-1.451c0-1.027 1.45-3.276 1.45-5.8a5.779 5.779 0 0 0-2-4.668c-1.27-1.276-3.071-1.059-3.071.317v1.451c0 3.824-5.41 9.429-7.248 9.429H8.329v15.23h2.9c2.486 0 2.239 1.451 5.74 1.451h11.655a3.6 3.6 0 0 0 3.625-2.9s1.305-7.7 1.45-10.154-.5-3.626-2.9-3.626H25" class="cls-3" transform="translate(-.092 -.617)"/>
            <path id="사각형_2272" d="M0 0H7.248V18.858H0z" class="cls-3" transform="translate(.989 68.519)"/>
            <path id="선_97" d="M0 0L0 2.176" class="cls-3" transform="translate(4.613 71.42)"/>
            <path id="패스_2523" d="M76.506 30.481a8.255 8.255 0 0 0-12.056-2.959c-2.648 2.095-3.023 5.5-2.6 7.97.831 4.879 4.788 8.324 14.657 15.5 9.869-7.174 13.826-10.62 14.657-15.5.422-2.473.046-5.875-2.6-7.97a8.255 8.255 0 0 0-12.058 2.959z" class="cls-3" transform="translate(-.678 -.271)"/>
            <path id="패스_2524" d="M166.529 73.44l4.094 8.983 9.386.838a.727.727 0 0 1 .447 1.241l-6.894 6.84 1.727 8.917a.726.726 0 0 1-1.039.788l-8.381-4.211-8.383 4.178a.726.726 0 0 1-1.037-.79l1.727-8.875-6.9-6.848a.728.728 0 0 1 .448-1.241l9.386-.838 4.095-8.983a.727.727 0 0 1 1.324.001z" class="cls-3" transform="translate(-1.66 -.761)"/>
            <path id="패스_2525" d="M141.163 16.76c2.533-.949 3.987-4.432 3.987-6.983v-1c0-.707 1-2.252 1-3.99a3.974 3.974 0 0 0-1.377-3.209c-.873-.877-2.112-.727-2.112.218v1c0 2.629-3.72 6.482-4.984 6.482h-2.991v10.474h1.994c1.71 0 1.54 1 3.947 1h8.014a2.476 2.476 0 0 0 2.492-1.994s.9-5.3 1-6.982-.34-2.494-1.993-2.494h-3.988" class="cls-3" transform="translate(-1.48 -.01)"/>
            <path id="사각형_2273" d="M0 0H4.984V12.967H0z" class="cls-3" transform="translate(128.22 7.772)"/>
            <path id="선_98" d="M0 0L0 1.496" class="cls-3" transform="translate(130.712 9.767)"/>
            <path id="패스_2526" d="M125.218 51.777a5.34 5.34 0 0 0-10.077 3.446c.571 3.355 3.291 5.725 10.077 10.657 6.787-4.932 9.506-7.3 10.078-10.657a5.34 5.34 0 0 0-10.078-3.446z" class="cls-3" transform="translate(-1.264 -.507)"/>
            <path id="패스_2527" d="M30.24 5.1l2.815 6.176 6.453.576a.5.5 0 0 1 .308.854l-4.74 4.7 1.187 6.131a.5.5 0 0 1-.714.542l-5.763-2.9-5.764 2.873a.5.5 0 0 1-.713-.543l1.187-6.1-4.742-4.709a.5.5 0 0 1 .308-.853l6.453-.577 2.816-6.17a.5.5 0 0 1 .909 0z" class="cls-3" transform="translate(-.215 -.05)"/>
        </g>
    </g>
</svg>
