<svg xmlns="http://www.w3.org/2000/svg" id="그룹_1507" width="158" height="146" viewBox="0 0 158 146">
    <defs>
        <clipPath id="clip-path">
            <path id="사각형_1737" d="M0 0H158V146H0z" class="cls-1"/>
        </clipPath>
        <style>
            .cls-1{fill:#fff}
        </style>
    </defs>
    <g id="그룹_1506" clip-path="url(#clip-path)">
        <path id="패스_1100" d="M24.256 73.437c14.518 5.825 33.737 9.033 54.119 9.033s39.6-3.208 54.119-9.033c15.635-6.273 24.245-15.055 24.245-24.728 0-13.39-8.415-25.827-23.694-35.023C118.382 4.861 98.966 0 78.375 0s-40.008 4.86-54.67 13.685C8.425 22.882.011 35.32.011 48.709c0 9.673 8.61 18.454 24.245 24.728m3.412-53.126C41.152 12.2 59.159 7.728 78.375 7.728S115.6 12.2 129.082 20.311c12.868 7.745 19.955 17.83 19.955 28.4 0 6.208-7.072 12.606-19.4 17.553C116 71.732 97.8 74.743 78.375 74.743c-41.643 0-70.661-13.719-70.661-26.034 0-10.568 7.086-20.653 19.954-28.4" class="cls-1" transform="translate(-.002)"/>
        <path id="패스_1101" d="M151.789 115.385c-1.693-1.095-4.606-1.992-8.874-.053-3.4 1.544-14.69 5.619-18.714 6.825a3.862 3.862 0 0 0 2.2 7.4c4.311-1.29 16.007-5.516 19.69-7.19a4.451 4.451 0 0 1 1.557-.454c.322.331 1.385 2.012 1.385 9.783a7.3 7.3 0 0 1-2.285 5.376c-11.262 10.379-38.989 17.352-69 17.352-28.411 0-54.77-6.2-67.15-15.8a7.98 7.98 0 0 1-2.891-6.137c0-5.965 1.268-8.374 1.939-8.815.335-.219 1.184-.076 2.217.377 15.81 6.916 43.519 11.938 65.886 11.938q2.225 0 4.421-.047a3.863 3.863 0 0 0-.161-7.725q-2.115.044-4.26.046c-24.029 0-50.293-5.818-62.806-11.294-4.539-1.985-7.681-.963-9.518.242-3.6 2.364-5.421 7.5-5.421 15.279a15.757 15.757 0 0 0 5.884 12.251c13.855 10.739 41.39 17.41 71.86 17.41 32.3 0 61.428-7.611 74.208-19.389a15.052 15.052 0 0 0 4.784-11.06c0-6.81-.6-13.5-4.951-16.314" class="cls-1" transform="translate(-.001 -16.154)"/>
        <path id="사각형_1734" d="M0 0H7.703V7.474H0z" class="cls-1" transform="translate(40.991 33.761)"/>
        <path id="사각형_1735" d="M0 0H7.703V7.474H0z" class="cls-1" transform="translate(52.169 48.709)"/>
        <path id="사각형_1736" d="M0 0H7.703V7.474H0z" class="cls-1" transform="translate(59.619 33.761)"/>
        <path id="패스_1102" d="M156.3 83.368a3.843 3.843 0 0 0-5.348 1.038c-3.626 5.383-12.245 10.413-24.27 14.166-5.869 1.832-12.762 7-14.926 14.413-.292 1-.58 2.016-.87 3.04-1.573 5.559-4.206 14.861-7.037 15.309-1.755.265-5.325-7.613-6.667-10.584-.8-1.763-1.619-3.584-2.462-5.232a19.463 19.463 0 0 0-16.344-10.39h-.005c-32.571 0-62-7.972-71.575-19.388A3.857 3.857 0 1 0 .9 90.713c11.1 13.243 42.237 22.142 77.548 22.142 3.005 0 7.458 2.368 9.418 6.194.757 1.478 1.506 3.136 2.3 4.89 3.218 7.125 6.838 15.14 13.5 15.14a8.882 8.882 0 0 0 1.389-.112c7.695-1.219 10.517-11.188 13.246-20.831.284-1 .567-2 .852-2.979 1.282-4.389 6.019-8.019 9.823-9.207 13.887-4.334 23.7-10.288 28.364-17.218a3.87 3.87 0 0 0-1.035-5.364" class="cls-1" transform="translate(0 -11.699)"/>
    </g>
</svg>
