<svg xmlns="http://www.w3.org/2000/svg" id="그룹_1787" width="588" height="367" viewBox="0 0 588 367">
    <defs>
        <clipPath id="clip-path">
            <path id="사각형_2111" d="M0 0H588V367H0z" class="cls-1"/>
        </clipPath>
        <clipPath id="clip-path-2">
            <path id="패스_1772" d="M260.421 148.468c-22.6 4.186-37.013-1.923-37.013-1.923s-17.97 52.132 1.12 97.795 69.791 61.265 69.791 61.265 50.7-15.6 69.789-61.265 1.122-97.795 1.122-97.795-14.416 6.109-37.014 1.923a55.413 55.413 0 0 1-33.9-20.949 55.421 55.421 0 0 1-33.9 20.949" class="cls-1" transform="translate(-215.743 -127.519)"/>
        </clipPath>
        <linearGradient id="linear-gradient" x1="-.722" x2="-.718" y1="1.127" y2="1.127" gradientUnits="objectBoundingBox">
            <stop offset="0" stop-color="#ecaf5f"/>
            <stop offset=".02" stop-color="#e7a756"/>
            <stop offset=".09" stop-color="#da913b"/>
            <stop offset=".171" stop-color="#ce7e25"/>
            <stop offset=".266" stop-color="#c67014"/>
            <stop offset=".383" stop-color="#c06608"/>
            <stop offset=".547" stop-color="#bc6001"/>
            <stop offset="1" stop-color="#bc5f00"/>
        </linearGradient>
        <style>
            .cls-1,.cls-4{fill:none}.cls-2{clip-path:url(#clip-path)}.cls-3{fill:#ecaf5f}.cls-4{stroke:#7a1601;stroke-miterlimit:10;stroke-width:6px}.cls-5{fill:#7a1601}.cls-9{fill:#d37b45}.cls-12{fill:#fff}.cls-13{fill:#ffe500}
        </style>
    </defs>
    <g id="그룹_1782">
        <g id="그룹_1781" class="cls-2">
            <path id="패스_1746" d="M478.363 338.39l-178.342-92.775s88.8 161.708 178.342 92.775" class="cls-3" transform="translate(-.325 -.43)"/>
            <path id="패스_1747" d="M478.363 338.39l-178.342-92.775s88.804 161.708 178.342 92.775z" class="cls-4" transform="translate(-.325 -.43)"/>
            <path id="패스_1748" d="M570.2 250.756l-270.178-5.141S503.65 387.223 570.2 250.756" class="cls-3" transform="translate(-.325 -.43)"/>
            <path id="패스_1749" d="M570.2 250.756l-270.178-5.141S503.65 387.223 570.2 250.756z" class="cls-4" transform="translate(-.325 -.43)"/>
            <path id="패스_1750" d="M585.074 131.874L300.021 245.415S575.567 304 585.074 131.874" class="cls-3" transform="translate(-.325 -.231)"/>
            <path id="패스_1751" d="M585.074 131.874L300.021 245.415S575.567 304 585.074 131.874z" class="cls-4" transform="translate(-.325 -.231)"/>
            <path id="패스_1752" d="M507.066 68.531L300.02 245.305s248.263-29.437 207.046-176.774" class="cls-3" transform="translate(-.325 -.12)"/>
            <path id="패스_1753" d="M507.066 68.531L300.02 245.305s248.263-29.437 207.046-176.774z" class="cls-4" transform="translate(-.325 -.12)"/>
            <path id="패스_1754" d="M110.081 338.39l178.343-92.775s-88.8 161.708-178.343 92.775" class="cls-3" transform="translate(-.119 -.43)"/>
            <path id="패스_1755" d="M110.081 338.39l178.343-92.775s-88.805 161.708-178.343 92.775z" class="cls-4" transform="translate(-.119 -.43)"/>
            <path id="패스_1756" d="M18.146 250.756l270.178-5.141S84.695 387.223 18.146 250.756" class="cls-3" transform="translate(-.02 -.43)"/>
            <path id="패스_1757" d="M18.146 250.756l270.178-5.141S84.695 387.223 18.146 250.756z" class="cls-4" transform="translate(-.02 -.43)"/>
            <path id="패스_1758" d="M3.255 131.874l285.053 113.541S12.762 304 3.255 131.874" class="cls-3" transform="translate(-.004 -.231)"/>
            <path id="패스_1759" d="M3.255 131.874l285.053 113.541S12.762 304 3.255 131.874z" class="cls-4" transform="translate(-.004 -.231)"/>
            <path id="패스_1760" d="M81.342 68.531l207.046 176.774S40.126 215.868 81.342 68.531" class="cls-3" transform="translate(-.083 -.12)"/>
            <path id="패스_1761" d="M81.342 68.531l207.046 176.774S40.126 215.868 81.342 68.531z" class="cls-4" transform="translate(-.083 -.12)"/>
            <path id="패스_1762" d="M413.42 93.416s-24.243 12.441-62.244 5.238-57-37.975-57-37.975-19 30.773-57 37.975-62.244-5.238-62.244-5.238-32.105 89.7 0 168.273 119.242 105.417 119.242 105.417 87.142-26.846 119.246-105.417 0-168.273 0-168.273" class="cls-5" transform="translate(-.174 -.106)"/>
            <path id="패스_1763" d="M386.769 122.206s-18.818 9.656-48.316 4.065-44.247-29.477-44.247-29.477-14.749 23.888-44.247 29.477-48.316-4.065-48.316-4.065-24.921 69.63 0 130.619 92.563 81.828 92.563 81.828 67.643-20.839 92.563-81.828 0-130.619 0-130.619" class="cls-5" transform="translate(-.206 -.169)"/>
            <path id="패스_1764" fill="#e87f0a" d="M328.179 148.391c22.574 4.179 36.974-1.92 36.974-1.92l18.539-18.293s-18.169 7.695-46.651 2.423-42.722-26.387-42.722-26.387v23.264a55.359 55.359 0 0 0 33.86 20.912" transform="translate(-.319 -.182)"/>
            <path id="패스_1765" fill="#ed9c53" d="M223.388 146.471s14.4 6.1 36.973 1.92a55.358 55.358 0 0 0 33.86-20.912v-23.265S279.982 125.328 251.5 130.6s-46.651-2.423-46.651-2.423z" transform="translate(-.222 -.182)"/>
            <path id="패스_1766" d="M224.5 244.137c-19.07-45.583-1.12-97.624-1.12-97.624l-18.541-18.293s-22.649 65.661 1.413 123.174 87.96 77.163 87.96 77.163v-23.263s-50.643-15.574-69.712-61.157" class="cls-3" transform="translate(-.211 -.224)"/>
            <path id="패스_1767" fill="#9f4805" d="M383.692 128.22l-18.54 18.293s17.952 52.041-1.12 97.624-69.714 61.157-69.714 61.157v23.263s63.9-19.65 87.961-77.163 1.413-123.174 1.413-123.174" transform="translate(-.319 -.224)"/>
            <path id="패스_1768" d="M338.565 126.236c29.5 5.591 48.316-4.065 48.316-4.065l19.882-16.811s-22.863 11.21-58.693 4.72-53.752-34.219-53.752-34.219v20.9s14.749 23.887 44.247 29.477" class="cls-9" transform="translate(-.319 -.133)"/>
            <path id="패스_1769" d="M249.95 126.236c29.5-5.59 44.247-29.477 44.247-29.477v-20.9s-17.917 27.731-53.751 34.221-58.693-4.72-58.693-4.72l19.881 16.811s18.818 9.656 48.316 4.065" class="cls-9" transform="translate(-.197 -.133)"/>
            <path id="패스_1770" d="M406.763 105.411l-19.881 16.812s24.92 69.63 0 130.619-92.563 81.827-92.563 81.827v20.185s77.932-27.016 108.206-97.814 4.238-151.628 4.238-151.628" class="cls-9" transform="translate(-.319 -.184)"/>
            <path id="패스_1771" d="M201.623 252.841c-24.921-60.989 0-130.619 0-130.619l-19.881-16.811s-26.036 80.829 4.237 151.628 108.206 97.813 108.206 97.813v-20.183s-67.641-20.839-92.562-81.829" class="cls-9" transform="translate(-.185 -.184)"/>
        </g>
    </g>
    <g id="그룹_1784" transform="translate(215.425 127.086)">
        <g id="그룹_1783" clip-path="url(#clip-path-2)">
            <path id="사각형_2112" fill="url(#linear-gradient)" d="M0 0H240.809V240.941H0z" transform="rotate(-28.194 36.915 188.037)"/>
        </g>
    </g>
    <g id="그룹_1786">
        <g id="그룹_1785" class="cls-2">
            <path id="패스_1773" d="M261.472 151.756c22.574-4.179 32.769-24.237 32.769-24.237a55.362 55.362 0 0 1-33.86 20.912c-22.574 4.178-36.974-1.92-36.974-1.92s15.491 9.422 38.065 5.244" class="cls-12" transform="translate(-.242 -.223)"/>
            <path id="패스_1774" d="M294.176 272.769c-11.044 0-19.483-2.848-25.084-8.464-5.513-5.53-8.29-13.751-8.252-24.435 0-4.207 2.478-6.722 6.631-6.722l9.232.43.107.015c3.346.447 5.345 2.877 5.345 6.5.061 9.034 3.7 13.071 11.809 13.071 4.429-.027 7.621-1.148 9.744-3.425 2.547-2.732 3.637-7.32 3.24-13.64-.85-6.294-7.677-9.74-20.291-10.246-3.532-.108-5.783-2.413-6-6.163V214.148c0-1.406.523-5.991 7.266-5.991h.108q1.227.054 2.378.054c13.42 0 15.2-5.2 15.365-9.1.034-6.288-1.255-10.835-3.828-13.42-1.894-1.9-4.539-2.828-8.085-2.828h-.287a12.375 12.375 0 0 0-5.453 1.068 10.011 10.011 0 0 0-3.49 2.7 10.784 10.784 0 0 0-1.935 3.833 16.11 16.11 0 0 0-.649 4.3c0 3.627-2 6.056-5.348 6.5l-.106.014-9.335.43c-4.086 0-6.525-2.516-6.525-6.731a33.229 33.229 0 0 1 7.645-22.42c5.492-6.877 14.1-10.364 25.585-10.364 21.933.075 33.641 11.256 33.865 32.334v.109c-.368 11.021-3.328 18.547-8.828 22.464 5.517 4.038 8.587 11.165 9.142 21.267v.137c0 22.267-11.741 34.116-33.955 34.267h-.017z" class="cls-3" transform="translate(-.282 -.284)"/>
            <path id="패스_1775" d="M293.961 164.683q31.051.106 31.369 29.866-.637 19.062-11.763 22.451 11.128 4.13 12.081 21.5 0 31.56-31.475 31.771-30.946 0-30.839-30.395 0-4.233 4.134-4.236l9.007.423q3.18.425 3.18 4.025.1 15.568 14.306 15.568 16.744-.1 15.471-19.8-1.483-11.65-22.677-12.5-3.392-.1-3.6-3.811v-5.4q0-3.495 4.769-3.5 1.283.055 2.484.056 17.366 0 17.863-11.493.1-18.853-14.407-18.853h-.324a14.7 14.7 0 0 0-6.517 1.324 12.423 12.423 0 0 0-4.345 3.388 13.215 13.215 0 0 0-2.384 4.714 18.5 18.5 0 0 0-.742 4.976q0 3.6-3.179 4.025l-9.113.423q-4.029 0-4.028-4.236a30.729 30.729 0 0 1 7.1-20.864q7.523-9.423 23.632-9.424m.009-4.991h-.009c-12.284 0-21.549 3.8-27.536 11.3a35.72 35.72 0 0 0-8.19 24.077c.042 5.548 3.573 9.127 9.021 9.127h.232l9.113-.423.214-.01.212-.028c4.637-.616 7.516-4.054 7.516-8.973a13.614 13.614 0 0 1 .557-3.631 8.219 8.219 0 0 1 1.484-2.954 7.445 7.445 0 0 1 2.634-2.011 9.9 9.9 0 0 1 4.318-.815h.324c2.847 0 4.914.686 6.314 2.093 2.047 2.055 3.118 6.083 3.1 11.649-.092 2.059-.482 6.621-12.869 6.621-.726 0-1.49-.018-2.27-.051h-.215c-7.206 0-9.763 4.572-9.763 8.487v5.544l.008.141c.287 5.026 3.6 8.369 8.438 8.517 11.111.446 17.132 3.139 17.857 8 .337 5.557-.531 9.489-2.581 11.688-1.629 1.747-4.228 2.607-7.948 2.631-5.516 0-9.222-1.8-9.281-10.609 0-4.88-2.878-8.318-7.51-8.939l-.214-.028-.216-.01-9.007-.424h-.235c-5.546 0-9.128 3.622-9.128 9.227-.04 11.355 2.982 20.172 8.98 26.188 6.087 6.1 15.122 9.2 26.853 9.2 11.846-.08 20.971-3.286 27.157-9.528s9.313-15.4 9.313-27.234v-.136l-.007-.137c-.517-9.425-3.124-16.494-7.77-21.124 4.614-4.661 7.114-12.15 7.456-22.387v-.22c-.121-11.271-3.332-19.987-9.55-25.906-6.159-5.864-15.174-8.857-26.8-8.9z" class="cls-5" transform="translate(-.279 -.279)"/>
            <path id="패스_1776" d="M294.276 328.83v-23.263A131.808 131.808 0 0 1 255 283.792s24.563 18.6 39.275 45.038" class="cls-12" transform="translate(-.276 -.496)"/>
            <path id="패스_1777" d="M221.53 152.825l1.858-6.311-18.539-18.293s9.473 10.784 13.2 15.911 3.477 8.693 3.477 8.693" class="cls-12" transform="translate(-.222 -.224)"/>
            <path id="패스_1778" d="M248.859 146.5l-9.946-4.638a22.533 22.533 0 0 1-10.891-10.886l-4.642-9.939-4.641 9.939a22.537 22.537 0 0 1-10.893 10.886L197.9 146.5l9.945 4.638a22.531 22.531 0 0 1 10.893 10.885l4.641 9.94 4.642-9.94a22.527 22.527 0 0 1 10.891-10.885z" class="cls-12" transform="translate(-.214 -.212)"/>
            <path id="패스_1779" d="M218.319 105.375l-7.978-3.72a18.068 18.068 0 0 1-8.739-8.732l-3.723-7.973-3.724 7.973a18.068 18.068 0 0 1-8.739 8.732l-7.978 3.72 7.978 3.722a18.07 18.07 0 0 1 8.739 8.733l3.724 7.973 3.723-7.973a18.07 18.07 0 0 1 8.739-8.733z" class="cls-13" transform="translate(-.192 -.149)"/>
            <path id="패스_1780" d="M456.15 50.368l-6.164-2.875a13.963 13.963 0 0 1-6.751-6.746l-2.877-6.16-2.876 6.16a13.969 13.969 0 0 1-6.752 6.746l-6.164 2.875 6.164 2.875a13.971 13.971 0 0 1 6.752 6.747l2.876 6.16 2.877-6.16a13.965 13.965 0 0 1 6.751-6.747z" class="cls-13" transform="translate(-.459 -.06)"/>
            <path id="패스_1781" d="M146.271 13.473l-5.263-2.455a11.919 11.919 0 0 1-5.765-5.76L132.787 0l-2.456 5.26a11.919 11.919 0 0 1-5.765 5.76l-5.266 2.453 5.262 2.455a11.919 11.919 0 0 1 5.765 5.76l2.456 5.26 2.455-5.26a11.923 11.923 0 0 1 5.765-5.76z" class="cls-13" transform="translate(-.129)"/>
        </g>
    </g>
</svg>
