<svg xmlns="http://www.w3.org/2000/svg" id="그룹_1519" width="215" height="190" viewBox="0 0 215 110">
    <defs>
        <clipPath id="clip-path">
            <path id="사각형_1744" d="M0 0H215V110H0z" class="cls-1"/>
        </clipPath>
        <style>
            .cls-1{fill:#fff}
        </style>
    </defs>
    <path id="패스_1110" d="M76.135 44.57h93.313l17.275-14.716-4.857-5.7-15.176 12.925H78.224L67.335 30.49l-3.877 6.41z" class="cls-1" transform="translate(-9.388 -3.384)"/>
    <path id="사각형_1743" d="M0 0H31.402V7.491H0z" class="cls-1" transform="rotate(-81.21 76.859 -49.271)"/>
    <g id="그룹_1518">
        <g id="그룹_1517" clip-path="url(#clip-path)">
            <path id="패스_1111" d="M26.72 95.385a24.446 24.446 0 1 1 24.446 24.535A24.52 24.52 0 0 1 26.72 95.385m7.46 0a16.986 16.986 0 1 0 16.986-17.049A17.036 17.036 0 0 0 34.18 95.385" class="cls-1" transform="translate(-3.825 -9.919)"/>
            <path id="패스_1112" d="M0 89.009l1.35 1.171c.317.277 7.909 6.729 22.134 6.729h.3l6.249-.04a20.72 20.72 0 0 1-3.025-7.469l-3.274.021-.249 3.744v-3.743c-8.234 0-13.525-2.515-15.876-3.952.2-4.073.788-13.584 2.084-21.682 1.9-11.9 7.58-14.456 20.236-19.1 6.45-2.367 10.226-3.682 14.425-5.146 2.189-.761 4.493-1.564 7.344-2.575 3.245-1.148 9.9-5.745 20.468-13.179 6.825-4.8 13.88-9.763 17.68-11.838 8.184-4.467 25.9-4.467 36.484-4.467 11.812 0 21.654.481 31.771 6.529a105.652 105.652 0 0 1 11.206 8.068c6.016 4.756 11.209 8.865 16.852 8.865h12.984c1.313 4.714 2.565 16.9 2.262 26.493l-.068 2.118 1.775 1.148a37.31 37.31 0 0 1 3.343 2.471c-1.733 5.237-5.034 14.687-6.838 19.494-5.51 1.939-13.569 4.328-15.279 4.831-.318.024-.985.062-2.273.114a20.714 20.714 0 0 1-2.295 7.56c3.6-.119 5.712-.235 6.173-.347.619-.176 11.606-3.388 17.839-5.705l1.559-.58.612-1.552c1.885-4.777 6.882-19.13 8.366-23.884l.681-2.18-1.62-1.606a44.748 44.748 0 0 0-4.48-3.707c.074-9.553-1.134-25.943-4.2-30.507l-1.11-1.649h-17.432c-3.057 0-7.515-3.525-12.236-7.26a112.2 112.2 0 0 0-12-8.621C150.187.57 138.86 0 126.33 0c-15.28 0-30.959.415-40.047 5.378-4.172 2.277-11.083 7.136-18.4 12.282-7.2 5.061-16.151 11.36-18.668 12.251-2.84 1.005-5.131 1.805-7.309 2.564-4.234 1.475-8.038 2.8-14.54 5.183-12 4.4-22.361 8.2-25.04 24.943A234.86 234.86 0 0 0 .064 87.218zm67.719.107a20.691 20.691 0 0 1-2.919 7.509c32.178-.244 58.748-.5 78.733-.769a20.66 20.66 0 0 1-2.56-7.452c-16.968.218-40.572.461-73.254.711" class="cls-1"/>
            <path id="패스_1113" d="M159.9 95.385a24.446 24.446 0 1 1 24.446 24.535A24.519 24.519 0 0 1 159.9 95.385m7.46 0a16.986 16.986 0 1 0 16.986-17.048 17.036 17.036 0 0 0-16.986 17.048" class="cls-1" transform="translate(-22.889 -9.919)"/>
        </g>
    </g>
</svg>
