<svg xmlns="http://www.w3.org/2000/svg" width="318" height="63" viewBox="0 0 318 63">
    <defs>
        <clipPath id="clip-path">
            <path id="사각형_2159" d="M0 0H318V63H0z" class="cls-1"/>
        </clipPath>
        <style>
            .cls-1{fill:#f2ad8f}
        </style>
    </defs>
    <g id="그룹_1870">
        <g id="그룹_1869" clip-path="url(#clip-path)">
            <path id="패스_1900" d="M303.1 42.569a8.369 8.369 0 0 0-12.187-2.975c-2.676 2.106-3.055 5.527-2.629 8.014.841 4.905 4.84 8.37 14.816 15.584 9.976-7.214 13.976-10.678 14.816-15.584.426-2.486.046-5.907-2.63-8.014a8.368 8.368 0 0 0-12.186 2.975" class="cls-1" transform="translate(-.069 -.191)"/>
            <path id="패스_1901" d="M256.606 21.717a4.588 4.588 0 0 0-6.68-1.631 4.546 4.546 0 0 0-1.442 4.393c.461 2.689 2.653 4.588 8.122 8.542 5.469-3.954 7.661-5.853 8.122-8.542a4.546 4.546 0 0 0-1.442-4.393 4.588 4.588 0 0 0-6.68 1.631" class="cls-1" transform="translate(-.059 -.097)"/>
            <path id="패스_1902" d="M288.959 1.745A3.266 3.266 0 0 0 284.2.584a3.237 3.237 0 0 0-1.027 3.128c.328 1.914 1.889 3.266 5.783 6.081 3.894-2.816 5.455-4.167 5.783-6.081a3.238 3.238 0 0 0-1.024-3.128 3.267 3.267 0 0 0-4.757 1.161" class="cls-1" transform="translate(-.068)"/>
            <path id="패스_1903" d="M14.965 42.569a8.369 8.369 0 0 1 12.187-2.975c2.675 2.106 3.055 5.527 2.629 8.014-.841 4.905-4.84 8.37-14.816 15.584C4.989 55.978.989 52.513.149 47.608-.278 45.122.1 41.7 2.778 39.594a8.369 8.369 0 0 1 12.187 2.975" class="cls-1" transform="translate(0 -.191)"/>
            <path id="패스_1904" d="M61.466 21.717a4.588 4.588 0 0 1 6.68-1.631 4.546 4.546 0 0 1 1.442 4.393c-.461 2.689-2.653 4.588-8.122 8.542-5.466-3.954-7.666-5.853-8.122-8.542a4.546 4.546 0 0 1 1.442-4.393 4.588 4.588 0 0 1 6.68 1.631" class="cls-1" transform="translate(-.013 -.097)"/>
            <path id="패스_1905" d="M29.115 1.745A3.266 3.266 0 0 1 33.87.584a3.237 3.237 0 0 1 1.03 3.128c-.328 1.914-1.889 3.266-5.783 6.081-3.894-2.816-5.455-4.167-5.783-6.081A3.237 3.237 0 0 1 24.359.584a3.266 3.266 0 0 1 4.756 1.161" class="cls-1" transform="translate(-.006)"/>
        </g>
    </g>
</svg>
