<svg xmlns="http://www.w3.org/2000/svg" width="318" height="64" viewBox="0 0 318 64">
    <defs>
        <clipPath id="clip-path">
            <path id="사각형_2160" d="M0 0H318V64H0z" class="cls-1"/>
        </clipPath>
        <style>
            .cls-1{fill:#f2d77c}
        </style>
    </defs>
    <g id="그룹_1873">
        <g id="그룹_1872" clip-path="url(#clip-path)">
            <path id="패스_1906" d="M303.773 36.356l4.138 9.03 9.488.843a.73.73 0 0 1 .452 1.247l-6.969 6.876 1.747 8.964a.733.733 0 0 1-1.051.792l-8.472-4.233-8.475 4.2a.733.733 0 0 1-1.049-.794l1.746-8.921-6.97-6.884a.731.731 0 0 1 .453-1.247l9.488-.843 4.139-9.03a.736.736 0 0 1 1.337 0" class="cls-1" transform="translate(-.069 -.188)"/>
            <path id="패스_1907" d="M256.973 18.319l2.268 4.951 5.2.461a.4.4 0 0 1 .248.684l-3.82 3.768.957 4.914a.4.4 0 0 1-.576.435l-4.644-2.321-4.646 2.3a.4.4 0 0 1-.574-.435l.956-4.89-3.82-3.773a.4.4 0 0 1 .248-.684l5.2-.461 2.268-4.951a.4.4 0 0 1 .733 0" class="cls-1" transform="translate(-.059 -.094)"/>
            <path id="패스_1908" d="M289.218.165l1.6 3.49 3.666.325a.282.282 0 0 1 .175.481l-2.692 2.657.674 3.465a.283.283 0 0 1-.406.305l-3.275-1.635-3.275 1.623a.284.284 0 0 1-.4-.307l.675-3.448-2.693-2.66a.282.282 0 0 1 .175-.481l3.666-.325 1.6-3.49a.284.284 0 0 1 .517 0" class="cls-1" transform="translate(-.068)"/>
            <path id="패스_1909" d="M14.3 36.356l-4.138 9.03-9.492.843a.73.73 0 0 0-.452 1.247l6.969 6.876-1.745 8.964a.733.733 0 0 0 1.051.792l8.472-4.233 8.474 4.2a.733.733 0 0 0 1.049-.794l-1.746-8.921 6.97-6.884a.731.731 0 0 0-.453-1.247l-9.488-.843-4.139-9.03a.736.736 0 0 0-1.337 0" class="cls-1" transform="translate(0 -.188)"/>
            <path id="패스_1910" d="M61.1 18.319l-2.268 4.951-5.2.461a.4.4 0 0 0-.248.684l3.82 3.768-.958 4.917a.4.4 0 0 0 .576.435l4.644-2.321 4.646 2.3a.4.4 0 0 0 .574-.435l-.956-4.89 3.82-3.773a.4.4 0 0 0-.248-.684l-5.2-.461-2.268-4.951a.4.4 0 0 0-.733 0" class="cls-1" transform="translate(-.013 -.094)"/>
            <path id="패스_1911" d="M28.857.165l-1.6 3.49-3.666.325a.282.282 0 0 0-.174.481l2.691 2.657-.674 3.465a.283.283 0 0 0 .406.305l3.273-1.635 3.275 1.623a.284.284 0 0 0 .4-.307l-.668-3.448 2.692-2.66a.282.282 0 0 0-.174-.481l-3.667-.325-1.6-3.49a.284.284 0 0 0-.516 0" class="cls-1" transform="translate(-.006)"/>
        </g>
    </g>
</svg>
