<svg xmlns="http://www.w3.org/2000/svg" id="그룹_1505" width="177" height="139" viewBox="0 0 177 139">
    <defs>
        <clipPath id="clip-path">
            <path id="사각형_1733" d="M0 0H177V139H0z" class="cls-1"/>
        </clipPath>
        <style>
            .cls-1{fill:#fff}
        </style>
    </defs>
    <g id="그룹_1504" clip-path="url(#clip-path)">
        <path id="패스_1095" d="M32.567 7.724h9.617c1.356 0 2.545 1.686 2.545 3.609h7.733C52.461 5.084 47.851 0 42.184 0h-9.617C26.9 0 22.29 5.084 22.29 11.332h7.733c0-1.922 1.189-3.609 2.545-3.609" class="cls-1" transform="translate(-3.139)"/>
        <path id="패스_1096" d="M41.876 58.744h7.354v-7.723h-7.354v-7.345h-7.732v7.345H26.79v7.724h7.354v7.345h7.733z" class="cls-1" transform="translate(-3.773 -6.194)"/>
        <path id="패스_1097" d="M176.5 117.783c-.412-2.559-1.048-6.908-1.785-11.945-1.443-9.864-3.378-23.093-5.25-34.044a33.754 33.754 0 1 0-54.741-39.441H62.276A33.756 33.756 0 1 0 7.534 71.794C5.663 82.75 3.726 95.987 2.283 105.855 1.547 110.883.912 115.226.5 117.783c-2.822 17.539 7.058 22.023 10.154 22.98a17.494 17.494 0 0 0 5.1.706 20.976 20.976 0 0 0 18-9.775c2.782-4.105 11.575-19.182 15.181-26.542l-6.946-3.394C38.384 109.1 29.645 124 27.3 127.427l-.113.174a13.187 13.187 0 0 1-14.25 5.783c-4.31-1.332-6.061-6.571-4.8-14.376.42-2.611 1.028-6.771 1.8-12.037 1.212-8.286 2.773-18.954 4.346-28.61A33.628 33.628 0 0 0 34.237 84.9a34.137 34.137 0 0 0 3.963-.25 18.847 18.847 0 0 0 36.928.253h26.422V82.86a18.845 18.845 0 0 0 37.25 1.79 34.14 34.14 0 0 0 3.968.251 33.624 33.624 0 0 0 19.957-6.539c1.571 9.65 3.132 20.313 4.343 28.593.772 5.274 1.381 9.439 1.8 12.053 1.255 7.8-.5 13.044-4.806 14.376a13.19 13.19 0 0 1-14.249-5.783l-.113-.174c-2.343-3.433-11.082-18.325-14.681-25.67l-6.946 3.394c3.606 7.359 12.4 22.437 15.181 26.542a20.974 20.974 0 0 0 18 9.775 17.494 17.494 0 0 0 5.1-.706c3.1-.957 12.977-5.441 10.155-22.98M8.184 51.156A26.052 26.052 0 1 1 57.8 62.238c-.367-.022-.737-.035-1.11-.035A18.867 18.867 0 0 0 38.322 76.85 26.02 26.02 0 0 1 8.184 51.156m48.509 40.965A11.1 11.1 0 1 1 67.8 81.023a11.117 11.117 0 0 1-11.111 11.1m44.861-12.934v-2.01H75.14a18.887 18.887 0 0 0-9.789-12.864 33.687 33.687 0 0 0 .79-24.238h44.717a33.693 33.693 0 0 0 .79 24.238 18.855 18.855 0 0 0-10.094 14.871m18.752 12.934a11.1 11.1 0 1 1 11.111-11.1 11.117 11.117 0 0 1-11.111 11.1m22.457-14.943a26.253 26.253 0 0 1-4.086-.328A18.867 18.867 0 0 0 120.306 62.2c-.373 0-.742.013-1.11.035a26.054 26.054 0 1 1 23.567 14.94" class="cls-1" transform="translate(0 -2.469)"/>
        <path id="패스_1098" d="M158.883 7.724h9.617c1.356 0 2.545 1.686 2.545 3.609h7.733C178.777 5.084 174.167 0 168.5 0h-9.617c-5.667 0-10.277 5.084-10.277 11.332h7.733c0-1.922 1.189-3.609 2.545-3.609" class="cls-1" transform="translate(-20.928)"/>
        <path id="패스_1099" d="M168.109 43.676h-7.733v7.345h-7.354v7.724h7.354v7.344h7.733v-7.344h7.353v-7.724h-7.353zm-.126 14.942H160.5v-7.472h7.48z" class="cls-1" transform="translate(-21.55 -6.194)"/>
    </g>
</svg>
