<svg xmlns="http://www.w3.org/2000/svg" id="그룹_1524" width="129" height="147" viewBox="0 0 129 177">
    <defs>
        <clipPath id="clip-path">
            <path id="사각형_1748" d="M0 0H129V177H0z" class="cls-1"/>
        </clipPath>
        <style>
            .cls-1{fill:#fff}
        </style>
    </defs>
    <g id="그룹_1524-2" clip-path="url(#clip-path)">
        <path id="패스_1117" d="M122.813 95.1L71.447 38.412a24.156 24.156 0 0 0-28.063-5.677l-8.9-9.827a16.514 16.514 0 1 0-10.265 9.349l8.8 9.714a24.367 24.367 0 0 0 2.67 29.01l20.1 22.185-9.295.686a3.469 3.469 0 0 0-3.046 2.4 12.937 12.937 0 0 0 2 11.27l-19.522 17.78a20.7 20.7 0 0 0-5.058 23.435 7.728 7.728 0 0 0-2.6 1.534c-2.412 2.2-3.245 5.789-2.285 9.853.393 1.66.182 2.755-.2 3.1s-1.492.453-3.1-.1c-3.944-1.349-7.589-.861-10 1.336S-.57 170.261.39 174.324a3.468 3.468 0 1 0 6.748-1.6c-.393-1.661-.182-2.757.2-3.105s1.491-.454 3.1.1c3.943 1.347 7.589.86 10-1.339s3.246-5.789 2.285-9.854c-.393-1.66-.182-2.755.2-3.1a2.958 2.958 0 0 1 2.444-.1 20.408 20.408 0 0 0 13.407 5.844q.51.024 1.018.025A20.381 20.381 0 0 0 53.6 155.85l32.32-29.433 1.133 1.251a24.184 24.184 0 1 0 35.76-32.568m-72.946 5.473l3.5-.258-2.753 2.507a5.352 5.352 0 0 1-.744-2.249m-.929 50.127a13.666 13.666 0 0 1-18.352-20.253l22.271-20.281 10.04-9.147 18.353 20.254zm67.573-26.54a17.212 17.212 0 0 1-24.329-1.17l-1.133-1.251L63.374 91.2 40.819 66.307a17.242 17.242 0 1 1 25.5-23.22l51.361 56.686a17.317 17.317 0 0 1-1.166 24.391" class="cls-1"/>
    </g>
</svg>
