<svg xmlns="http://www.w3.org/2000/svg" id="그룹_1553" width="883" height="292" viewBox="0 0 883 292">
    <defs>
        <clipPath id="clip-path">
            <path id="사각형_1965" fill="none" d="M0 0H883V292H0z"/>
        </clipPath>
        <style>
            .cls-11,.cls-13,.cls-14,.cls-15,.cls-20,.cls-22,.cls-24,.cls-25,.cls-5,.cls-7,.cls-9{fill:none}.cls-2{fill:#ccc}.cls-4{fill:#f8f8f8}.cls-11,.cls-13,.cls-14,.cls-15,.cls-20,.cls-22,.cls-24,.cls-25,.cls-5,.cls-7,.cls-9{stroke:#717578}.cls-11,.cls-13,.cls-14,.cls-15,.cls-22,.cls-5{stroke-linecap:round}.cls-11,.cls-13,.cls-14,.cls-15,.cls-20,.cls-22,.cls-24,.cls-25,.cls-5,.cls-7,.cls-9{stroke-miterlimit:10}.cls-20,.cls-5{stroke-width:2.381px}.cls-6{fill:#fff}.cls-13,.cls-7{stroke-width:2.454px}.cls-8{fill:#ff5628}.cls-14,.cls-9{stroke-width:2.504px}.cls-10{fill:#66d5c4}.cls-11{stroke-width:1.963px}.cls-12{fill:#1b94a3}.cls-15,.cls-25{stroke-width:2.003px}.cls-16{fill:#efadff}.cls-17{fill:#717578}.cls-18{fill:#b4b8fd}.cls-21{fill:#d9d9d9}.cls-22{stroke-width:2.025px;stroke-dasharray:.27 4.05}.cls-23{fill:#f2d77c}.cls-24{stroke-width:2.129px}.cls-25{stroke-dasharray:2.504 2.504}.cls-27{fill:#74ddff}
        </style>
    </defs>
    <path id="사각형_1911" d="M0 0H880.496V6.009H0z" class="cls-2" transform="translate(1.252 285.991)"/>
    <g id="그룹_1552">
        <g id="그룹_1551" clip-path="url(#clip-path)">
            <path id="패스_1408" d="M128.448 273.282l-1.534-6.33H94.786l-1.534 6.33c-1.4 5.775-9.538 9.844-15.489 9.844h-.173v5.911h66.347v-5.911c-5.95 0-14.089-4.068-15.489-9.844" class="cls-4" transform="translate(-.021 -.439)"/>
            <path id="패스_1409" d="M128.448 273.282l-1.534-6.33H94.786l-1.534 6.33c-1.4 5.775-9.538 9.844-15.489 9.844h-.173v5.911h66.347v-5.911c-5.95-.001-14.089-4.069-15.489-9.844z" class="cls-5" transform="translate(-.021 -.439)"/>
            <path id="패스_1410" d="M181.836 268.063H39.669A2.965 2.965 0 0 1 36.7 265.1v-89.664a2.965 2.965 0 0 1 2.967-2.963h142.169a2.965 2.965 0 0 1 2.967 2.963V265.1a2.965 2.965 0 0 1-2.967 2.963" class="cls-4" transform="translate(-.01 -.284)"/>
            <rect id="사각형_1912" width="148.101" height="95.59" class="cls-5" rx="2.968" transform="translate(36.693 172.189)"/>
            <path id="패스_1411" d="M176.813 260.769H44.7a.654.654 0 0 1-.656-.653v-80.131a.654.654 0 0 1 .656-.653h132.113a.654.654 0 0 1 .654.653v80.131a.654.654 0 0 1-.654.653" class="cls-6" transform="translate(-.012 -.295)"/>
            <path id="사각형_1913" d="M.654 0h132.115a.656.656 0 0 1 .656.656v80.125a.656.656 0 0 1-.656.656H.654A.654.654 0 0 1 0 80.783V.654A.654.654 0 0 1 .654 0z" class="cls-7" transform="translate(44.03 179.037)"/>
            <path id="사각형_1914" d="M0 0H133.73V8.974H0z" class="cls-8" transform="translate(43.725 178.73)"/>
            <path id="사각형_1915" d="M0 0H133.73V8.974H0z" class="cls-9" transform="translate(43.725 178.73)"/>
            <path id="패스_1412" d="M53.946 183.733a2.315 2.315 0 1 1-2.314-2.311 2.313 2.313 0 0 1 2.314 2.311" class="cls-10" transform="translate(-.013 -.298)"/>
            <path id="패스_1413" d="M61.884 183.733a2.315 2.315 0 1 1-2.314-2.311 2.313 2.313 0 0 1 2.314 2.311" class="cls-10" transform="translate(-.015 -.298)"/>
            <path id="패스_1414" d="M69.823 183.733a2.315 2.315 0 1 1-2.314-2.311 2.313 2.313 0 0 1 2.314 2.311" class="cls-10" transform="translate(-.018 -.298)"/>
            <path id="사각형_1916" d="M0 0H26.227V23.116H0z" class="cls-2" transform="translate(63.419 194.964)"/>
            <path id="사각형_1917" d="M0 0H26.227V23.116H0z" class="cls-11" transform="translate(63.419 194.964)"/>
            <path id="사각형_1918" d="M0 0H26.227V23.116H0z" class="cls-2" transform="translate(98.078 194.964)"/>
            <path id="사각형_1919" d="M0 0H26.227V23.116H0z" class="cls-11" transform="translate(98.078 194.964)"/>
            <path id="사각형_1920" d="M0 0H26.227V23.116H0z" class="cls-2" transform="translate(132.499 194.964)"/>
            <path id="사각형_1921" d="M0 0H26.227V23.116H0z" class="cls-11" transform="translate(132.499 194.964)"/>
            <path id="사각형_1922" d="M0 0H27.551V7.31H0z" class="cls-12" transform="translate(62.095 224.686)"/>
            <path id="사각형_1923" d="M0 0H27.551V7.31H0z" class="cls-7" transform="translate(62.095 224.686)"/>
            <path id="사각형_1924" d="M0 0H27.551V7.31H0z" class="cls-10" transform="translate(97.416 224.686)"/>
            <path id="사각형_1925" d="M0 0H27.551V7.31H0z" class="cls-7" transform="translate(97.416 224.686)"/>
            <path id="사각형_1926" d="M0 0H27.551V7.31H0z" class="cls-12" transform="translate(131.837 224.686)"/>
            <path id="사각형_1927" d="M0 0H27.551V7.31H0z" class="cls-7" transform="translate(131.837 224.686)"/>
            <path id="선_213" d="M0 0L27.966 0" class="cls-2" transform="translate(61.882 235.856)"/>
            <path id="선_214" d="M0 0L27.966 0" class="cls-13" transform="translate(61.882 235.856)"/>
            <path id="선_215" d="M0 0L27.966 0" class="cls-2" transform="translate(61.882 240.265)"/>
            <path id="선_216" d="M0 0L27.966 0" class="cls-13" transform="translate(61.882 240.265)"/>
            <path id="선_217" d="M0 0L27.476 0" class="cls-2" transform="translate(97.208 235.856)"/>
            <path id="선_218" d="M0 0L27.476 0" class="cls-13" transform="translate(97.208 235.856)"/>
            <path id="선_219" d="M0 0L27.476 0" class="cls-2" transform="translate(97.208 240.265)"/>
            <path id="선_220" d="M0 0L27.476 0" class="cls-13" transform="translate(97.208 240.265)"/>
            <path id="선_221" d="M0 0L27.966 0" class="cls-2" transform="translate(131.553 235.856)"/>
            <path id="선_222" d="M0 0L27.966 0" class="cls-13" transform="translate(131.553 235.856)"/>
            <path id="선_223" d="M0 0L27.966 0" class="cls-2" transform="translate(131.553 240.265)"/>
            <path id="선_224" d="M0 0L27.966 0" class="cls-13" transform="translate(131.553 240.265)"/>
            <path id="사각형_1928" d="M0 0H133.425V13.713H0z" class="cls-8" transform="translate(44.03 246.761)"/>
            <path id="사각형_1929" d="M0 0H133.425V13.713H0z" class="cls-9" transform="translate(44.03 246.761)"/>
            <path id="사각형_1930" d="M0 0H16.176V176.885H0z" class="cls-14" transform="translate(723.033 111.538)"/>
            <path id="선_225" d="M0 0L71.094 0" class="cls-14" transform="translate(696.038 288.598)"/>
            <path id="사각형_1931" d="M0 0H194.893V110.42H0z" class="cls-10" transform="translate(634.878 37.859)"/>
            <path id="사각형_1932" d="M0 0H194.893V110.42H0z" class="cls-9" transform="translate(634.878 37.859)"/>
            <path id="선_226" d="M0 0L41.054 0" class="cls-14" transform="translate(652.981 29.109)"/>
            <path id="선_227" d="M0 0L0 20.998" class="cls-14" transform="translate(671.756 28.86)"/>
            <path id="패스_1415" d="M691.135 58.663h-36.464a2.157 2.157 0 0 1-2.158-2.155v-8.767a2.157 2.157 0 0 1 2.158-2.155h36.463a2.157 2.157 0 0 1 2.158 2.155v8.767a2.157 2.157 0 0 1-2.158 2.155" class="cls-6" transform="translate(-.176 -.075)"/>
            <rect id="사각형_1933" width="40.78" height="13.077" class="cls-9" rx="2.159" transform="translate(652.337 45.512)"/>
            <path id="선_228" d="M0 0L41.555 0" class="cls-14" transform="translate(770.137 29.109)"/>
            <path id="선_229" d="M0 0L0 20.998" class="cls-14" transform="translate(789.913 28.86)"/>
            <path id="패스_1416" d="M808.9 58.663h-36.467a2.157 2.157 0 0 1-2.158-2.155v-8.767a2.157 2.157 0 0 1 2.158-2.155H808.9a2.156 2.156 0 0 1 2.157 2.155v8.767a2.157 2.157 0 0 1-2.157 2.155" class="cls-6" transform="translate(-.208 -.075)"/>
            <path id="사각형_1934" d="M2.159 0H38.62a2.159 2.159 0 0 1 2.159 2.159v8.759a2.159 2.159 0 0 1-2.159 2.159H2.158A2.158 2.158 0 0 1 0 10.919v-8.76A2.159 2.159 0 0 1 2.159 0z" class="cls-9" transform="translate(770.067 45.512)"/>
            <path id="선_230" d="M0 0L194.26 0" class="cls-2" transform="translate(635.457 147.854)"/>
            <path id="선_231" d="M0 0L194.26 0" class="cls-15" transform="translate(635.457 147.854)"/>
            <path id="선_232" d="M0 0L194.26 0" class="cls-2" transform="translate(635.457 158.604)"/>
            <path id="선_233" d="M0 0L194.26 0" class="cls-14" transform="translate(635.457 158.604)"/>
            <path id="선_234" d="M0 0L0 10" class="cls-2" transform="translate(795.921 147.854)"/>
            <path id="선_235" d="M0 0L0 10" class="cls-14" transform="translate(795.921 147.854)"/>
            <path id="선_236" d="M0 0L0 10" class="cls-2" transform="translate(661.742 147.854)"/>
            <path id="선_237" d="M0 0L0 10" class="cls-14" transform="translate(661.742 147.854)"/>
            <path id="패스_1417" d="M724.85 101.248a31.839 31.839 0 1 1-31.839-31.8 31.818 31.818 0 0 1 31.839 31.8" class="cls-16" transform="translate(-.178 -.114)"/>
            <path id="패스_1418" d="M724.85 101.248a31.839 31.839 0 1 1-31.839-31.8 31.818 31.818 0 0 1 31.839 31.8z" class="cls-14" transform="translate(-.178 -.114)"/>
            <path id="패스_1419" d="M687 114.295l-1.974-6.475H675.1l-1.974 6.475H666.9l9.614-27.317h7.063l9.651 27.317zm-3.354-11.313q-2.738-8.8-3.084-9.956t-.492-1.826q-.613 2.383-3.522 11.78z" class="cls-17" transform="translate(-.18 -.143)"/>
            <path id="패스_1420" d="M719.266 100.432q0 6.718-3.829 10.29t-11.06 3.572h-7.714V87.089h8.553q6.67 0 10.361 3.518t3.689 9.825m-6 .149q0-8.767-7.752-8.765h-3.074v17.715h2.477q8.348 0 8.349-8.95" class="cls-17" transform="translate(-.188 -.143)"/>
            <path id="패스_1421" d="M760.066 78.378a14.716 14.716 0 1 1-14.716-14.7 14.706 14.706 0 0 1 14.716 14.7" class="cls-6" transform="translate(-.197 -.105)"/>
            <path id="패스_1422" d="M760.066 78.378a14.716 14.716 0 1 1-14.716-14.7 14.706 14.706 0 0 1 14.716 14.7z" class="cls-9" transform="translate(-.197 -.105)"/>
            <path id="패스_1423" d="M786.56 101.555a19.5 19.5 0 1 1-19.5-19.472 19.486 19.486 0 0 1 19.5 19.472" class="cls-8" transform="translate(-.201 -.135)"/>
            <path id="패스_1424" d="M786.56 101.555a19.5 19.5 0 1 1-19.5-19.472 19.486 19.486 0 0 1 19.5 19.472z" class="cls-9" transform="translate(-.201 -.135)"/>
            <path id="패스_1425" d="M174 287.753l21.675-20.93 4.459 3.663 5.508-4.349 23.493 21.615zm-4.087-39.9a1.038 1.038 0 0 1 1.052-1.042 1 1 0 0 1 .649.241l19.194 15.771-20.894 20zm40.081 14.847l20.649-16.3a1.012 1.012 0 0 1 .635-.229 1.037 1.037 0 0 1 1.05 1.043v35.6z" class="cls-10" transform="translate(-.046 -.405)"/>
            <path id="패스_1426" d="M231.076 247.647V280l-19.144-17.239 19.144-15.114m-59.912.653l17.758 14.592-17.758 17V248.3m34.413 19.479l20.35 18.722h-48.833l18.647-18.006 2.817 2.315 1.559 1.281 1.584-1.251 3.877-3.061m25.7-22.861a2.257 2.257 0 0 0-1.411.5l-29.72 23.463-27.74-22.794a2.256 2.256 0 0 0-1.445-.525 2.29 2.29 0 0 0-2.3 2.291v37.9L192.43 263l2.453 2.85L170.9 289h61.435l-25.6-23.552 1.58-2.576 25.262 22.747V247.21a2.293 2.293 0 0 0-2.3-2.293" class="cls-17" transform="translate(-.045 -.403)"/>
            <path id="패스_1427" d="M232.276 246.09l-28.005-23.156a6.538 6.538 0 0 0-8.53.127l-26.1 23.029 26.147 23.122a6.462 6.462 0 0 0 8.473.106z" class="cls-6" transform="translate(-.046 -.364)"/>
            <path id="패스_1428" d="M232.276 246.09l-28.005-23.156a6.538 6.538 0 0 0-8.53.127l-26.1 23.029 26.147 23.122a6.462 6.462 0 0 0 8.473.106z" class="cls-9" transform="translate(-.046 -.364)"/>
            <path id="패스_1429" d="M212.174 229.96a17.452 17.452 0 1 1-17.452-17.427 17.439 17.439 0 0 1 17.452 17.427" class="cls-8" transform="translate(-.048 -.35)"/>
            <path id="패스_1430" d="M212.174 229.96a17.452 17.452 0 1 1-17.452-17.427 17.439 17.439 0 0 1 17.452 17.427z" class="cls-9" transform="translate(-.048 -.35)"/>
            <path id="패스_1431" d="M205.8 228.753a10 10 0 0 1-.618 3.582 5.818 5.818 0 0 1-1.735 2.527 3.992 3.992 0 0 1-2.586.9 3.123 3.123 0 0 1-1.879-.575 2.785 2.785 0 0 1-1.07-1.561h-.164a4.492 4.492 0 0 1-1.661 1.6 4.606 4.606 0 0 1-2.222.534 4.473 4.473 0 0 1-3.519-1.439 5.637 5.637 0 0 1-1.283-3.891 6.32 6.32 0 0 1 1.7-4.582 6.062 6.062 0 0 1 4.569-1.76 16.056 16.056 0 0 1 2.31.185 13.111 13.111 0 0 1 2.257.514l-.3 6.371v.328q0 2.191 1.427 2.191 1.084 0 1.722-1.4a8.6 8.6 0 0 0 .638-3.562 8.512 8.512 0 0 0-.961-4.117 6.636 6.636 0 0 0-2.729-2.732 8.394 8.394 0 0 0-4.061-.959 10.275 10.275 0 0 0-5.083 1.206 8 8 0 0 0-3.3 3.445 11.326 11.326 0 0 0-1.139 5.2 7.442 7.442 0 0 0 8.231 8.247 18.027 18.027 0 0 0 6.325-1.233v2.247a16.406 16.406 0 0 1-6.27 1.177q-5.076 0-7.915-2.732a10.083 10.083 0 0 1-2.84-7.624 12.962 12.962 0 0 1 1.537-6.363 10.529 10.529 0 0 1 4.26-4.267 12.706 12.706 0 0 1 6.166-1.48 11.144 11.144 0 0 1 5.3 1.233 8.751 8.751 0 0 1 3.608 3.513 10.571 10.571 0 0 1 1.283 5.268m-14.1 1.739q0 3.193 2.51 3.192 2.648 0 2.894-4.013l.165-3.275a7.072 7.072 0 0 0-1.852-.233 3.387 3.387 0 0 0-2.737 1.164 4.751 4.751 0 0 0-.981 3.165" class="cls-17" transform="translate(-.049 -.36)"/>
            <path id="사각형_1935" d="M0 0H6.26V68.313H0z" class="cls-10" transform="translate(824.838 220.284)"/>
            <path id="사각형_1936" d="M0 0H6.26V68.313H0z" class="cls-9" transform="translate(824.838 220.284)"/>
            <path id="패스_1432" d="M801.074 171.641h16.559v-9.922h-16.559l4.418 4.961z" class="cls-2" transform="translate(-.216 -.266)"/>
            <path id="패스_1433" d="M801.074 171.641h16.559v-9.922h-16.559l4.418 4.961z" class="cls-14" transform="translate(-.216 -.266)"/>
            <path id="패스_1434" d="M843.87 175.986h21.638a16.456 16.456 0 0 1 16.467 16.444v29.132h-39.482v-44.2a1.375 1.375 0 0 1 1.377-1.375" class="cls-2" transform="translate(-.227 -.289)"/>
            <path id="패스_1435" d="M843.87 175.986h21.638a16.456 16.456 0 0 1 16.467 16.444v29.132h-39.482v-44.2a1.375 1.375 0 0 1 1.377-1.376z" class="cls-14" transform="translate(-.227 -.289)"/>
            <path id="사각형_1937" d="M0 0H35.194V22.218H0z" class="cls-18" transform="translate(838.978 191.617)"/>
            <path id="사각형_1938" d="M0 0H35.194V22.218H0z" class="cls-14" transform="translate(838.978 191.617)"/>
            <path id="패스_1436" fill="none" stroke="#717578" stroke-linecap="round" stroke-linejoin="round" stroke-width="2.504px" d="M848.716 203.287l25.678-11.7h-50.647z" transform="translate(-.222 -.315)"/>
            <path id="패스_1437" d="M862.509 175.558h-44.936c-9.783 0-19.329 7.114-19.329 16.884v29.114H843.3v-29.892c0-9.341 9.852-16.106 19.2-16.106" class="cls-8" transform="translate(-.215 -.289)"/>
            <path id="패스_1438" d="M862.509 175.558h-44.936c-9.783 0-19.329 7.114-19.329 16.884v29.114H843.3v-29.892c0-9.34 9.856-16.106 19.209-16.106z" class="cls-9" transform="translate(-.215 -.289)"/>
            <path id="패스_1439" d="M820.383 201.653a2.6 2.6 0 1 1-2.6-2.595 2.6 2.6 0 0 1 2.6 2.595z" class="cls-14" transform="translate(-.22 -.327)"/>
            <path id="선_238" d="M0 0L0 36.999" class="cls-14" transform="translate(817.554 161.52)"/>
            <path id="패스_1440" d="M583.194 288.807H358.743a8.058 8.058 0 0 1-8.064-8.052V135.307a8.057 8.057 0 0 1 8.064-8.052h224.451a8.057 8.057 0 0 1 8.064 8.052v145.448a8.058 8.058 0 0 1-8.064 8.052" class="cls-4" transform="translate(-.094 -.209)"/>
            <path id="사각형_1939" d="M8.066 0h224.448a8.065 8.065 0 0 1 8.065 8.065v145.422a8.065 8.065 0 0 1-8.065 8.065H8.065A8.065 8.065 0 0 1 0 153.487V8.066A8.066 8.066 0 0 1 8.066 0z" class="cls-5" transform="translate(350.585 127.046)"/>
            <path id="패스_1441" d="M547.337 277.33H369.173a7.476 7.476 0 0 1-7.481-7.472V146.242a7.476 7.476 0 0 1 7.481-7.471h178.164a7.476 7.476 0 0 1 7.482 7.471v123.616a7.477 7.477 0 0 1-7.482 7.472" class="cls-10" transform="translate(-.097 -.228)"/>
            <path id="사각형_1940" d="M7.484 0h178.16a7.483 7.483 0 0 1 7.483 7.483v123.593a7.483 7.483 0 0 1-7.483 7.483H7.484A7.484 7.484 0 0 1 0 131.075V7.484A7.484 7.484 0 0 1 7.484 0z" class="cls-20" transform="translate(361.595 138.542)"/>
            <path id="선_239" d="M0 73.437L64.369 0" class="cls-5" transform="translate(473.114 40.857)"/>
            <path id="선_240" d="M0 97.519L3.859 0" class="cls-5" transform="translate(468.812 20.115)"/>
            <path id="패스_1442" d="M552.226 28.72a9.769 9.769 0 1 1-12.443-6 9.754 9.754 0 0 1 12.443 6" class="cls-12" transform="translate(-.144 -.036)"/>
            <path id="패스_1443" d="M552.226 28.72a9.769 9.769 0 1 1-12.443-6 9.754 9.754 0 0 1 12.443 6z" class="cls-9" transform="translate(-.144 -.036)"/>
            <path id="패스_1444" d="M478.025 19.68a9.76 9.76 0 1 1 4.2-13.146 9.777 9.777 0 0 1-4.2 13.146" class="cls-12" transform="translate(-.125 -.002)"/>
            <path id="패스_1445" d="M478.025 19.68a9.76 9.76 0 1 1 4.2-13.146 9.777 9.777 0 0 1-4.2 13.146z" class="cls-9" transform="translate(-.125 -.002)"/>
            <path id="패스_1446" d="M585.51 216.833a13.736 13.736 0 1 1-13.736-13.716 13.726 13.726 0 0 1 13.736 13.716" class="cls-6" transform="translate(-.15 -.334)"/>
            <path id="패스_1447" d="M585.51 216.833a13.736 13.736 0 1 1-13.736-13.716 13.726 13.726 0 0 1 13.736 13.716z" class="cls-20" transform="translate(-.15 -.334)"/>
            <path id="패스_1448" d="M580.083 184.381a8.309 8.309 0 1 1-8.31-8.3 8.3 8.3 0 0 1 8.31 8.3" class="cls-2" transform="translate(-.152 -.29)"/>
            <path id="패스_1449" d="M580.083 184.381a8.309 8.309 0 1 1-8.31-8.3 8.3 8.3 0 0 1 8.31 8.3z" class="cls-20" transform="translate(-.152 -.29)"/>
            <path id="패스_1450" d="M494.43 127.04h-46.871v-10.952a7.313 7.313 0 0 1 7.319-7.307h32.235a7.312 7.312 0 0 1 7.317 7.307z" class="cls-21" transform="translate(-.121 -.179)"/>
            <path id="패스_1451" d="M494.43 127.04h-46.871v-10.952a7.313 7.313 0 0 1 7.319-7.307h32.235a7.312 7.312 0 0 1 7.317 7.307z" class="cls-5" transform="translate(-.121 -.179)"/>
            <path id="패스_1452" d="M466.813 267.981l-4.364 3.581a2.057 2.057 0 0 1-2.891-.283l-19.42-24.651a2.05 2.05 0 0 1 .284-2.886l4.364-3.58a2.054 2.054 0 0 1 2.89.283l19.42 24.649a2.05 2.05 0 0 1-.283 2.887" class="cls-2" transform="translate(-.118 -.394)"/>
            <path id="패스_1453" d="M466.813 267.981l-4.364 3.581a2.057 2.057 0 0 1-2.891-.283l-19.42-24.651a2.05 2.05 0 0 1 .284-2.886l4.364-3.58a2.054 2.054 0 0 1 2.89.283l19.42 24.649a2.05 2.05 0 0 1-.283 2.887z" class="cls-5" transform="translate(-.118 -.394)"/>
            <path id="패스_1454" d="M418.395 247.569l17.393-5.357-17.513-30.927-13.562 12.124a6.211 6.211 0 0 0-.621 7.022l7.956 14.05a6.23 6.23 0 0 0 6.347 3.088" class="cls-2" transform="translate(-.109 -.347)"/>
            <path id="패스_1455" d="M418.395 247.569l17.393-5.357-17.513-30.927-13.562 12.124a6.211 6.211 0 0 0-.621 7.022l7.956 14.05a6.23 6.23 0 0 0 6.347 3.088z" class="cls-5" transform="translate(-.109 -.347)"/>
            <path id="패스_1456" d="M428.812 204.885L447 237.006a137.406 137.406 0 0 1 28.6-13.873l-20.665-36.492a104.483 104.483 0 0 1-26.122 18.244" class="cls-8" transform="translate(-.116 -.307)"/>
            <path id="패스_1457" d="M428.812 204.885L447 237.006a137.406 137.406 0 0 1 28.6-13.873l-20.665-36.492a104.483 104.483 0 0 1-26.123 18.244z" class="cls-9" transform="translate(-.116 -.307)"/>
            <path id="패스_1458" d="M454.941 186.63l20.665 36.493a79.548 79.548 0 0 1 8.386-2.3l-23-40.611a87.467 87.467 0 0 1-6.053 6.421" class="cls-10" transform="translate(-.123 -.296)"/>
            <path id="패스_1459" d="M454.941 186.63l20.665 36.493a79.548 79.548 0 0 1 8.386-2.3l-23-40.611a87.467 87.467 0 0 1-6.051 6.418z" class="cls-20" transform="translate(-.123 -.296)"/>
            <path id="패스_1460" d="M461 180.181l23 40.611c7.179-1.535 14.363-1.834 20.48.313l-32.722-57.784A69.863 69.863 0 0 1 461 180.181" class="cls-8" transform="translate(-.124 -.269)"/>
            <path id="패스_1461" d="M461 180.181l23 40.611c7.179-1.535 14.363-1.834 20.48.313l-32.722-57.784A69.863 69.863 0 0 1 461 180.181z" class="cls-9" transform="translate(-.124 -.269)"/>
            <path id="패스_1462" d="M496.474 197.617l-3.7 2.776-9.1-16.061 4.291-1.736a5.344 5.344 0 0 1 6.652 2.316l3.293 5.818a5.324 5.324 0 0 1-1.44 6.886" class="cls-2" transform="translate(-.13 -.3)"/>
            <path id="패스_1463" d="M496.474 197.617l-3.7 2.776-9.1-16.061 4.291-1.736a5.344 5.344 0 0 1 6.652 2.316l3.293 5.818a5.324 5.324 0 0 1-1.436 6.887z" class="cls-5" transform="translate(-.13 -.3)"/>
            <path id="패스_1464" d="M447.09 240.206l-7.729 4.365a2.089 2.089 0 0 1-2.844-.789l-19.1-33.729a2.083 2.083 0 0 1 .79-2.84l7.729-4.365a2.091 2.091 0 0 1 2.845.788l19.1 33.73a2.083 2.083 0 0 1-.79 2.84" class="cls-2" transform="translate(-.112 -.333)"/>
            <path id="패스_1465" d="M447.09 240.206l-7.729 4.365a2.089 2.089 0 0 1-2.844-.789l-19.1-33.729a2.083 2.083 0 0 1 .79-2.84l7.729-4.365a2.091 2.091 0 0 1 2.845.788l19.1 33.73a2.083 2.083 0 0 1-.791 2.84z" class="cls-5" transform="translate(-.112 -.333)"/>
            <path id="선_241" d="M0 3.258L5.769 0" class="cls-5" transform="translate(421.347 207.083)"/>
            <path id="선_242" d="M0 3.259L5.769 0" class="cls-5" transform="translate(423.423 210.749)"/>
            <path id="선_243" d="M0 3.259L5.769 0" class="cls-5" transform="translate(425.499 214.415)"/>
            <path id="선_244" d="M0 3.259L5.768 0" class="cls-5" transform="translate(427.576 218.081)"/>
            <path id="선_245" d="M0 3.258L5.769 0" class="cls-5" transform="translate(429.651 221.748)"/>
            <path id="선_246" d="M0 3.258L5.769 0" class="cls-5" transform="translate(431.727 225.413)"/>
            <path id="선_247" d="M0 3.258L5.769 0" class="cls-5" transform="translate(433.803 229.079)"/>
            <path id="선_248" d="M0 3.259L5.769 0" class="cls-5" transform="translate(435.879 232.745)"/>
            <path id="선_249" d="M0 3.259L5.768 0" class="cls-5" transform="translate(437.956 236.411)"/>
            <path id="선_250" d="M0 31.627L15.756 0" class="cls-22" transform="translate(495.824 143.494)"/>
            <path id="선_251" d="M0 26.576L23.301 0" class="cls-22" transform="translate(500.565 152.121)"/>
            <path id="선_252" d="M0 19.773L29.31 0" class="cls-22" transform="translate(504.237 163.588)"/>
            <path id="선_253" d="M0 11.668L33.386 0" class="cls-22" transform="translate(506.598 177.138)"/>
            <path id="선_254" d="M0 2.792L35.26 0" class="cls-22" transform="translate(507.494 191.879)"/>
            <path id="패스_1466" d="M338.364 172.473h21.346a11.4 11.4 0 0 1 11.406 11.39V245l7.3 13.538-7.3-.244h-32.752l-3.544-2.245a10.318 10.318 0 0 1-4.648-6.96l-.673-3.89 8.865-2.4z" class="cls-2" transform="translate(-.089 -.284)"/>
            <path id="패스_1467" d="M313.5 244.037h-16.777V141.365a6.881 6.881 0 0 1 6.884-6.877h3a6.881 6.881 0 0 1 6.885 6.877v92.16l10.264 10.71z" class="cls-2" transform="translate(-.08 -.221)"/>
            <path id="패스_1468" d="M300.616 288.875H230.34a7.221 7.221 0 0 1-7.225-7.216V176.066a7.221 7.221 0 0 1 7.225-7.216h70.276a7.222 7.222 0 0 1 7.227 7.216v105.593a7.222 7.222 0 0 1-7.227 7.216" class="cls-23" transform="translate(-.06 -.278)"/>
            <path id="사각형_1941" d="M7.228 0H77.5a7.227 7.227 0 0 1 7.227 7.227V112.8a7.228 7.228 0 0 1-7.228 7.228H7.229A7.229 7.229 0 0 1 0 112.8V7.228A7.228 7.228 0 0 1 7.228 0z" class="cls-14" transform="translate(223.055 168.573)"/>
            <path id="패스_1469" d="M269.566 280.589a4.078 4.078 0 1 1-4.077-4 4.039 4.039 0 0 1 4.077 4" class="cls-2" transform="translate(-.07 -.455)"/>
            <ellipse id="타원_47" cx="4.077" cy="4.001" class="cls-15" rx="4.077" ry="4.001" transform="translate(261.341 276.133)"/>
            <path id="패스_1470" d="M384.161 258.138c-6.994 0-12.665-6.965-12.665-13.949v-19.846h25.329v19.846c0 6.984-5.67 13.949-12.665 13.949" class="cls-6" transform="translate(-.1 -.369)"/>
            <path id="패스_1471" d="M358.667 172.473h-44.128v55.4a15.323 15.323 0 0 0 15.333 15.312c8.468 0 16.114-6.855 16.114-15.312V183.3s2.194-10.83 12.682-10.83" class="cls-6" transform="translate(-.085 -.284)"/>
            <path id="패스_1472" d="M299.235 273.348h-67.759l-.3-128.435c0-6.633 5.386-11.268 12.027-11.268h64.463s-8.481.173-8.481 6.647.052 133.057.052 133.057" class="cls-6" transform="translate(-.062 -.22)"/>
            <path id="패스_1473" d="M371.234 224.2h25.1v20.587c0 6.984-5.095 12.948-12.089 12.948h.034a13.187 13.187 0 0 1-12.979-12.948v-60.214c0-7.044-5.466-11.833-12.519-11.833h.127c-7.053 0-13.142 4.789-13.142 11.833v42.586c0 8.949-6.942 16.578-15.9 16.578h-.015c-8.449 0-16.124-7.214-16.124-15.651v-85.433c0-4.331-2.778-7.912-7.116-7.912h-.043c-4.338 0-8.362 3.581-8.362 7.912v131.582h-67.59V144.649a10.407 10.407 0 0 1 10.5-10.159l65.152.047" class="cls-9" transform="translate(-.062 -.221)"/>
            <path id="패스_1474" d="M384.094 258.408h-45.248a9.342 9.342 0 0 1-9.349-9.337v-4.854h-21.813" class="cls-24" transform="translate(-.083 -.402)"/>
            <path id="선_255" d="M0 0L52.295 0.105" class="cls-24" transform="translate(238.913 191.504)"/>
            <path id="패스_1475" d="M258.808 191.757a4.358 4.358 0 1 1-4.357-4.352 4.354 4.354 0 0 1 4.357 4.352" class="cls-10" transform="translate(-.067 -.308)"/>
            <path id="패스_1476" d="M258.808 191.757a4.358 4.358 0 1 1-4.357-4.352 4.354 4.354 0 0 1 4.357 4.352z" class="cls-9" transform="translate(-.067 -.308)"/>
            <path id="사각형_1942" d="M0 0H53.278V34.125H0z" class="cls-8" transform="translate(238.392 146.913)"/>
            <path id="사각형_1943" d="M0 0H53.278V34.125H0z" class="cls-9" transform="translate(238.392 146.913)"/>
            <path id="선_256" d="M0 0L0 29.498" class="cls-25" transform="translate(242.321 149.269)"/>
            <path id="선_257" d="M0 0L0 29.498" class="cls-25" transform="translate(285.379 149.269)"/>
            <path id="패스_1477" d="M255.908 153.619v22.2l18.958-11.75z" class="cls-6" transform="translate(-.069 -.253)"/>
            <path id="패스_1478" fill="none" stroke="#717578" stroke-miterlimit="10" stroke-width="2.003px" d="M255.908 153.619v22.2l18.958-11.75z" transform="translate(-.069 -.253)"/>
            <path id="사각형_1944" d="M0 0H52.815V16.239H0z" class="cls-16" transform="translate(238.393 205.612)"/>
            <path id="사각형_1945" d="M0 0H52.815V16.239H0z" class="cls-14" transform="translate(238.393 205.612)"/>
            <path id="선_258" d="M0 0L52.069 0" class="cls-9" transform="translate(238.817 227.016)"/>
            <path id="선_259" d="M0 0L52.069 0" class="cls-9" transform="translate(238.817 234.015)"/>
            <path id="선_260" d="M0 0L52.069 0" class="cls-9" transform="translate(238.817 240.015)"/>
            <path id="선_261" d="M0 0L52.069 0" class="cls-9" transform="translate(238.817 246.515)"/>
            <path id="선_262" d="M0 0L29.039 0" class="cls-9" transform="translate(261.847 252.514)"/>
            <path id="선_263" d="M0 0L14.018 0" class="cls-9" transform="translate(276.867 259.014)"/>
            <path id="선_264" d="M0 0L15.02 0" class="cls-9" transform="translate(261.847 259.014)"/>
            <path id="선_265" d="M0 0L29.039 0" class="cls-9" transform="translate(261.847 265.514)"/>
            <path id="사각형_1946" d="M0 0H19.828V17.284H0z" class="cls-2" transform="translate(238.913 250.119)"/>
            <path id="사각형_1947" d="M0 0H19.828V17.284H0z" class="cls-14" transform="translate(238.913 250.119)"/>
            <path id="사각형_1948" d="M0 0H23.82V12.369H0z" class="cls-12" transform="translate(314.455 181.186)"/>
            <path id="사각형_1949" d="M0 0H23.82V12.369H0z" class="cls-9" transform="translate(314.455 181.186)"/>
            <path id="선_266" d="M0 0L24.532 0" class="cls-27" transform="translate(315.418 202.016)"/>
            <path id="선_267" d="M0 0L24.532 0" class="cls-9" transform="translate(315.418 202.016)"/>
            <path id="선_268" d="M0 0L24.532 0" class="cls-27" transform="translate(314.917 207.517)"/>
            <path id="선_269" d="M0 0L24.532 0" class="cls-9" transform="translate(314.917 207.517)"/>
            <path id="선_270" d="M0 0L24.532 0" class="cls-27" transform="translate(314.917 213.515)"/>
            <path id="선_271" d="M0 0L24.532 0" class="cls-9" transform="translate(314.917 213.515)"/>
            <path id="선_272" d="M0 0L24.532 0" class="cls-27" transform="translate(314.917 218.516)"/>
            <path id="선_273" d="M0 0L24.532 0" class="cls-9" transform="translate(314.917 218.516)"/>
            <path id="선_274" d="M0 0L24.532 0" class="cls-27" transform="translate(314.917 224.515)"/>
            <path id="선_275" d="M0 0L24.532 0" class="cls-9" transform="translate(314.917 224.515)"/>
            <path id="선_276" d="M0 0L24.532 0" class="cls-27" transform="translate(314.917 230.015)"/>
            <path id="선_277" d="M0 0L24.532 0" class="cls-9" transform="translate(314.917 230.015)"/>
            <path id="선_278" d="M0 0L23.531 0" class="cls-27" transform="translate(315.919 235.514)"/>
            <path id="선_279" d="M0 0L23.531 0" class="cls-9" transform="translate(315.919 235.514)"/>
            <path id="패스_1479" d="M390.463 242.7a9.316 9.316 0 0 1-9.321 9.309h-7.306a10.543 10.543 0 0 1-1.042-1.628 10.748 10.748 0 0 1-1.418-5.1V233h19.087z" class="cls-8" transform="translate(-.1 -.383)"/>
            <path id="패스_1480" d="M390.463 242.7a9.316 9.316 0 0 1-9.321 9.309h-7.306a10.543 10.543 0 0 1-1.042-1.628 10.748 10.748 0 0 1-1.418-5.1V233h19.087z" class="cls-9" transform="translate(-.1 -.383)"/>
            <path id="선_280" d="M0 0L42.557 0" class="cls-9" transform="translate(314.417 172.518)"/>
            <path id="패스_1481" d="M46.186 268.315c.317-2.487-1.69-3.766-3.774-3.766 2.092 0 5.312-.733 5.443-3.675a3.675 3.675 0 0 0-3.721-3.735h-10.6c-1.722 0-3.308-.514-2.615-3.272l1.655-12.419c.537-2.359.19-5.28-2.577-5.659-2.68-.115-4.144 1.326-4.938 5.715-1.891 10.459-9.028 17-12.579 18.98-2.15 1.2-3.747 2.831-3.829 5.038-.135 3.647-.121 8.82-.076 12.95a6.822 6.822 0 0 0 6.825 6.744 51.166 51.166 0 0 0 23.01.268l1.231-.268a3.265 3.265 0 0 0 3.308-3.2 3.194 3.194 0 0 0-1.586-2.738c1.786-.3 3.6-.4 4.11-3.2a3.575 3.575 0 0 0-2.651-4.126 4.048 4.048 0 0 0 3.364-3.634" class="cls-6" transform="translate(-.002 -.388)"/>
            <path id="패스_1482" d="M46.186 268.315c.317-2.487-1.69-3.766-3.774-3.766 2.092 0 5.312-.733 5.443-3.675a3.675 3.675 0 0 0-3.721-3.735h-10.6c-1.722 0-3.308-.514-2.615-3.272l1.655-12.419c.537-2.359.19-5.28-2.577-5.659-2.68-.115-4.144 1.326-4.938 5.715-1.891 10.459-9.028 17-12.579 18.98-2.15 1.2-3.747 2.831-3.829 5.038-.135 3.647-.121 8.82-.076 12.95a6.822 6.822 0 0 0 6.825 6.744 51.166 51.166 0 0 0 23.01.268l1.231-.268a3.265 3.265 0 0 0 3.308-3.2 3.194 3.194 0 0 0-1.586-2.738c1.786-.3 3.6-.4 4.11-3.2a3.575 3.575 0 0 0-2.651-4.126 4.048 4.048 0 0 0 3.364-3.637z" class="cls-9" transform="translate(-.002 -.388)"/>
            <path id="사각형_1950" d="M0 0H14.578V33.275H0z" class="cls-18" transform="translate(1.252 255.322)"/>
            <path id="사각형_1951" d="M0 0H14.578V33.275H0z" class="cls-14" transform="translate(1.252 255.322)"/>
            <path id="패스_1484" d="M682.336 288.892l-58.541-.009.015-98.334a11.271 11.271 0 0 1 11.281-11.261L696 179.3l-.015 95.971a13.636 13.636 0 0 1-13.648 13.625" class="cls-6" transform="translate(-.168 -.295)"/>
            <path id="패스_1485" d="M682.336 288.892l-58.541-.009.015-98.334a11.271 11.271 0 0 1 11.281-11.261L696 179.3l-.015 95.971a13.636 13.636 0 0 1-13.649 13.621z" class="cls-9" transform="translate(-.168 -.295)"/>
            <path id="패스_1486" d="M710.137 198.53h-14.121v-19.232h2.636a11.477 11.477 0 0 1 11.483 11.471z" class="cls-2" transform="translate(-.188 -.295)"/>
            <path id="패스_1487" d="M710.137 198.53h-14.121v-19.232h2.636a11.477 11.477 0 0 1 11.483 11.471z" class="cls-14" transform="translate(-.188 -.295)"/>
            <path id="패스_1488" d="M683.923 289.036l-58.7-.009a13.277 13.277 0 0 1-13.284-13.271v-5.545l57.51.008c-.4 18.815 14.475 18.817 14.475 18.817" class="cls-2" transform="translate(-.165 -.444)"/>
            <path id="패스_1489" d="M683.923 289.036l-58.7-.009a13.277 13.277 0 0 1-13.284-13.271v-5.545l57.51.008c-.4 18.815 14.474 18.817 14.474 18.817z" class="cls-14" transform="translate(-.165 -.444)"/>
            <path id="사각형_1952" d="M0 0H69.927V8.715H0z" class="cls-10" transform="translate(616.211 209.68)"/>
            <path id="사각형_1953" d="M0 0H69.927V8.715H0z" class="cls-9" transform="translate(616.211 209.68)"/>
            <path id="선_281" d="M0 0L18.024 0" class="cls-9" transform="translate(632.858 227.199)"/>
            <path id="선_282" d="M0 0L18.024 0" class="cls-9" transform="translate(632.858 233.199)"/>
            <path id="선_283" d="M0 0L18.024 0" class="cls-9" transform="translate(632.858 239.699)"/>
            <path id="선_284" d="M0 0L33.545 0" class="cls-9" transform="translate(632.858 245.699)"/>
            <path id="선_285" d="M0 0L33.545 0" class="cls-9" transform="translate(652.384 252.198)"/>
            <path id="선_286" d="M0 0L17.523 0" class="cls-9" transform="translate(668.405 245.699)"/>
            <path id="선_287" d="M0 0L18.024 0" class="cls-9" transform="translate(632.858 252.198)"/>
            <path id="선_288" d="M0 0L18.024 0" class="cls-9" transform="translate(632.858 257.698)"/>
            <path id="선_289" d="M0 0L26.035 0" class="cls-9" transform="translate(652.384 257.698)"/>
            <path id="선_290" d="M0 0L18.024 0" class="cls-9" transform="translate(632.858 264.198)"/>
            <path id="사각형_1954" d="M0 0H31.586V17.427H0z" class="cls-8" transform="translate(654.552 222.843)"/>
            <path id="사각형_1955" d="M0 0H31.586V17.427H0z" class="cls-9" transform="translate(654.552 222.843)"/>
            <path id="패스_1490" d="M656.077 204.24l-1.25-4.1h-6.282l-1.25 4.1h-3.938l6.082-17.282h4.468l6.106 17.282zm-2.122-7.158q-1.731-5.566-1.95-6.3t-.313-1.152q-.387 1.507-2.227 7.45z" class="cls-17" transform="translate(-.173 -.307)"/>
            <path id="패스_1491" d="M676.487 195.468a8.475 8.475 0 0 1-2.423 6.511q-2.422 2.26-7 2.259h-4.88v-17.21h5.416a9.113 9.113 0 0 1 6.554 2.225 8.172 8.172 0 0 1 2.334 6.214m-3.8.095q0-5.545-4.9-5.545h-1.944v11.208h1.569q5.279 0 5.281-5.663" class="cls-17" transform="translate(-.178 -.308)"/>
            <path id="패스_1492" d="M794.725 289H739.39a5.389 5.389 0 0 1-5.39-5.383v-31.953a5.388 5.388 0 0 1 5.392-5.385h55.335a5.388 5.388 0 0 1 5.393 5.385v31.953a5.389 5.389 0 0 1-5.395 5.383" class="cls-23" transform="translate(-.198 -.405)"/>
            <path id="사각형_1956" d="M5.394 0h55.332a5.393 5.393 0 0 1 5.393 5.393V37.33a5.394 5.394 0 0 1-5.394 5.394H5.394A5.394 5.394 0 0 1 0 37.33V5.394A5.394 5.394 0 0 1 5.394 0z" class="cls-14" transform="translate(733.8 245.874)"/>
            <path id="패스_1493" d="M775.922 284.4a16.875 16.875 0 1 1 16.9-16.875 16.9 16.9 0 0 1-16.9 16.875" class="cls-2" transform="translate(-.205 -.412)"/>
            <path id="패스_1494" d="M775.922 251.894a15.625 15.625 0 1 1-15.646 15.624 15.653 15.653 0 0 1 15.646-15.624m0-2.5a18.125 18.125 0 1 0 18.15 18.124 18.137 18.137 0 0 0-18.15-18.124" class="cls-17" transform="translate(-.204 -.41)"/>
            <path id="패스_1495" d="M788.888 246.264h-25.929l1.671-6.221a4.992 4.992 0 0 1 4.507-2.842h13.574a4.993 4.993 0 0 1 4.508 2.842z" class="cls-8" transform="translate(-.206 -.39)"/>
            <path id="패스_1496" d="M788.888 246.264h-25.929l1.671-6.221a4.992 4.992 0 0 1 4.507-2.842h13.574a4.993 4.993 0 0 1 4.508 2.842z" class="cls-9" transform="translate(-.206 -.39)"/>
            <path id="패스_1497" d="M752.229 246.272h-11.314v-2.382a2.151 2.151 0 0 1 2.152-2.15h7.008a2.152 2.152 0 0 1 2.153 2.15z" class="cls-8" transform="translate(-.2 -.398)"/>
            <path id="패스_1498" d="M752.229 246.272h-11.314v-2.382a2.151 2.151 0 0 1 2.152-2.15h7.008a2.152 2.152 0 0 1 2.153 2.15z" class="cls-9" transform="translate(-.2 -.398)"/>
            <path id="선_291" d="M0 0L11.516 0" class="cls-14" transform="translate(740.431 252.367)"/>
            <path id="패스_1499" d="M757.772 252.221a1.513 1.513 0 1 1-1.514-1.511 1.512 1.512 0 0 1 1.514 1.511" class="cls-17" transform="translate(-.203 -.412)"/>
            <path id="사각형_1957" d="M0 0H25.647V20.552H0z" class="cls-8" transform="translate(497.576 255.273)"/>
            <path id="사각형_1958" d="M0 0H25.647V20.552H0z" class="cls-9" transform="translate(497.576 255.273)"/>
            <path id="패스_1500" d="M494.436 282.63l-8.762 3.683v-40.722l8.762 3.684a9.117 9.117 0 0 1 5.588 8.4v16.549a9.117 9.117 0 0 1-5.588 8.4" class="cls-21" transform="translate(-.131 -.404)"/>
            <path id="패스_1501" d="M494.436 282.63l-8.762 3.683v-40.722l8.762 3.684a9.117 9.117 0 0 1 5.588 8.4v16.549a9.117 9.117 0 0 1-5.588 8.406z" class="cls-14" transform="translate(-.131 -.404)"/>
            <path id="사각형_1959" d="M0 0H17.098V31.302H0z" class="cls-8" transform="translate(523.222 250.023)"/>
            <path id="사각형_1960" d="M0 0H17.098V31.302H0z" class="cls-9" transform="translate(523.222 250.023)"/>
            <path id="패스_1502" d="M537.672 225.765H552.5l11.03 15.335" class="cls-9" transform="translate(-.145 -.371)"/>
            <path id="패스_1503" d="M589.895 242.108l11.658-17.095h32.762v7h-28.9l-9.456 13.921z" class="cls-2" transform="translate(-.159 -.37)"/>
            <path id="패스_1504" d="M633.313 226.512v4.5h-28.554l-9.142 13.336-3.967-2.459 10.565-15.377zm2.5-2.5H600.89l-.745.972-10.564 15.427-1.441 2.084 2.148 1.377 3.966 2.561 2.05 1.324 1.378-2 8.4-12.249h29.739v-9.5z" class="cls-17" transform="translate(-.158 -.368)"/>
            <path id="패스_1505" d="M645.013 239.312l-14.136-5.134v-11.551l14.136-5.134z" class="cls-2" transform="translate(-.17 -.358)"/>
            <path id="패스_1506" d="M645.013 239.312l-14.136-5.134v-11.551l14.136-5.134z" class="cls-14" transform="translate(-.17 -.358)"/>
            <path id="패스_1507" d="M615.283 288.992h-71.111a3.7 3.7 0 0 1-3.706-3.7v-41.609a3.7 3.7 0 0 1 3.706-3.7h71.111a3.7 3.7 0 0 1 3.707 3.7v41.608a3.7 3.7 0 0 1-3.707 3.7" class="cls-10" transform="translate(-.146 -.395)"/>
            <rect id="사각형_1961" width="78.524" height="49.01" class="cls-9" rx="3.707" transform="translate(540.32 239.588)"/>
            <rect id="사각형_1962" width="64.752" height="37.449" class="cls-9" rx="2.833" transform="translate(547.206 245.368)"/>
            <path id="패스_1508" d="M601.646 278.612h-12.308a2.156 2.156 0 0 1-2.157-2.154v-1.382a2.156 2.156 0 0 1 2.157-2.154h12.308a2.156 2.156 0 0 1 2.157 2.154v1.382a2.156 2.156 0 0 1-2.157 2.154" class="cls-2" transform="translate(-.158 -.449)"/>
            <rect id="사각형_1963" width="16.623" height="5.691" class="cls-14" rx="2.158" transform="translate(587.023 272.472)"/>
            <path id="패스_1509" d="M534.567 230.584h-27.482a3.671 3.671 0 0 1-3.674-3.669v-2.352a3.67 3.67 0 0 1 3.674-3.669h27.482a3.671 3.671 0 0 1 3.673 3.669v2.352a3.671 3.671 0 0 1-3.673 3.669" class="cls-21" transform="translate(-.136 -.363)"/>
            <path id="사각형_1964" d="M3.675 0h27.479a3.675 3.675 0 0 1 3.675 3.675v2.34a3.675 3.675 0 0 1-3.675 3.675H3.674A3.674 3.674 0 0 1 0 6.016V3.675A3.675 3.675 0 0 1 3.675 0z" class="cls-14" transform="translate(503.275 220.53)"/>
        </g>
    </g>
</svg>
