<svg xmlns="http://www.w3.org/2000/svg" id="그룹_1509" width="152" height="163" viewBox="0 0 152 163">
    <defs>
        <clipPath id="clip-path">
            <path id="사각형_1738" d="M0 0H152V163H0z" class="cls-1"/>
        </clipPath>
        <style>
            .cls-1{fill:#fff}
        </style>
    </defs>
    <g id="그룹_1508" clip-path="url(#clip-path)">
        <path id="패스_1103" d="M151.641 87.109c-.045-.1-4.562-9.839-9.516-19.721-10.517-20.976-12.682-22.141-14.115-22.911-.091-.049-.183-.094-.277-.135-.558-.245-1.752-.818-3.134-1.481-7.12-3.415-15.085-7.145-19.5-8.171a3.848 3.848 0 0 0-4.162 1.75q-1.252 2.06-2.577 3.874L79.853 30.065V29.2c0-6.235-3.938-9.087-7.1-11.378a5.584 5.584 0 0 1 2.21-10.008 5.551 5.551 0 0 1 6.6 5.451 5.289 5.289 0 0 1-.315 1.812l7.266 2.576a12.948 12.948 0 0 0 .757-4.388A13.264 13.264 0 0 0 73.628.206a13.312 13.312 0 0 0-5.391 23.875c3.325 2.406 3.909 3.172 3.909 5.118v.866l-18.507 10.25q-1.323-1.815-2.581-3.875a3.848 3.848 0 0 0-4.162-1.75c-4.411 1.026-12.375 4.756-19.5 8.171-1.382.663-2.576 1.236-3.134 1.481-.094.041-.187.086-.277.135-1.433.77-3.6 1.934-14.115 22.911C4.92 77.27.4 87.011.358 87.109a3.863 3.863 0 0 0 2.064 5.21l28.946 11.6v55.22A3.857 3.857 0 0 0 35.222 163h81.556a3.858 3.858 0 0 0 3.854-3.861v-55.22l28.945-11.6a3.863 3.863 0 0 0 2.064-5.21m-58.5-40.86c-5.132 4.773-10.865 7.2-17.143 7.2s-12.011-2.423-17.143-7.2L76 36.754zM120.632 95.6V85.591h-7.708v69.687H39.076V85.591h-7.708V95.6L9.074 86.668C16.525 70.835 25.23 53.9 27.813 51.211c.687-.316 1.662-.783 2.915-1.385C34.462 48.036 41.522 44.65 46.1 43 56.176 57.937 67.817 61.168 76 61.168c14.249 0 23.934-9.359 29.893-18.17 4.583 1.651 11.643 5.038 15.378 6.828 1.253.6 2.228 1.069 2.915 1.385 2.582 2.689 11.287 19.623 18.739 35.457z" class="cls-1"/>
    </g>
</svg>
