<svg xmlns="http://www.w3.org/2000/svg" id="그룹_1780" width="588" height="367" viewBox="0 0 588 367">
    <defs>
        <clipPath id="clip-path">
            <path id="사각형_2108" d="M0 0H588V367H0z" class="cls-1"/>
        </clipPath>
        <clipPath id="clip-path-2">
            <path id="패스_1728" d="M260.421 148.468c-22.6 4.186-37.013-1.923-37.013-1.923s-17.97 52.132 1.12 97.795 69.791 61.26 69.791 61.26 50.7-15.6 69.789-61.264 1.122-97.795 1.122-97.795-14.416 6.109-37.014 1.923a55.418 55.418 0 0 1-33.9-20.949 55.426 55.426 0 0 1-33.9 20.949" class="cls-1" transform="translate(-215.743 -127.519)"/>
        </clipPath>
        <linearGradient id="linear-gradient" x1="-.722" x2="-.718" y1="1.127" y2="1.127" gradientUnits="objectBoundingBox">
            <stop offset="0" stop-color="#fff"/>
            <stop offset=".098" stop-color="#f1f1f4"/>
            <stop offset=".242" stop-color="#e5e5eb"/>
            <stop offset=".444" stop-color="#dedee6"/>
            <stop offset="1" stop-color="#dddde5"/>
        </linearGradient>
        <style>
            .cls-1,.cls-4{fill:none}.cls-2{clip-path:url(#clip-path)}.cls-3{fill:#f8f8f8}.cls-4{stroke:#47475c;stroke-miterlimit:10;stroke-width:6px}.cls-5{fill:#47475c}.cls-11{fill:#c0becc}.cls-13{fill:#fff}.cls-14{fill:#ffe500}
        </style>
    </defs>
    <g id="그룹_1775">
        <g id="그룹_1774" class="cls-2">
            <path id="패스_1710" d="M478.363 338.39l-178.342-92.775s88.8 161.708 178.342 92.775" class="cls-3" transform="translate(-.325 -.43)"/>
            <path id="패스_1711" d="M478.363 338.39l-178.342-92.775s88.804 161.708 178.342 92.775z" class="cls-4" transform="translate(-.325 -.43)"/>
            <path id="패스_1712" d="M570.2 250.756l-270.178-5.141S503.65 387.223 570.2 250.756" class="cls-3" transform="translate(-.325 -.43)"/>
            <path id="패스_1713" d="M570.2 250.756l-270.178-5.141S503.65 387.223 570.2 250.756z" class="cls-4" transform="translate(-.325 -.43)"/>
            <path id="패스_1714" d="M585.074 131.875l-285.053 113.54S575.567 304 585.074 131.875" class="cls-3" transform="translate(-.325 -.231)"/>
            <path id="패스_1715" d="M585.074 131.875l-285.053 113.54S575.567 304 585.074 131.875z" class="cls-4" transform="translate(-.325 -.231)"/>
            <path id="패스_1716" d="M507.066 68.531L300.02 245.3s248.263-29.433 207.046-176.769" class="cls-3" transform="translate(-.325 -.12)"/>
            <path id="패스_1717" d="M507.066 68.531L300.02 245.3s248.263-29.433 207.046-176.769z" class="cls-4" transform="translate(-.325 -.12)"/>
            <path id="패스_1718" d="M110.081 338.39l178.343-92.775s-88.8 161.708-178.343 92.775" class="cls-3" transform="translate(-.119 -.43)"/>
            <path id="패스_1719" d="M110.081 338.39l178.343-92.775s-88.805 161.708-178.343 92.775z" class="cls-4" transform="translate(-.119 -.43)"/>
            <path id="패스_1720" d="M18.146 250.756l270.178-5.141S84.695 387.223 18.146 250.756" class="cls-3" transform="translate(-.02 -.43)"/>
            <path id="패스_1721" d="M18.146 250.756l270.178-5.141S84.695 387.223 18.146 250.756z" class="cls-4" transform="translate(-.02 -.43)"/>
            <path id="패스_1722" d="M3.255 131.875l285.053 113.54S12.762 304 3.255 131.875" class="cls-3" transform="translate(-.004 -.231)"/>
            <path id="패스_1723" d="M3.255 131.875l285.053 113.54S12.762 304 3.255 131.875z" class="cls-4" transform="translate(-.004 -.231)"/>
            <path id="패스_1724" d="M81.342 68.531L288.388 245.3S40.126 215.867 81.342 68.531" class="cls-3" transform="translate(-.083 -.12)"/>
            <path id="패스_1725" d="M81.342 68.531L288.388 245.3S40.126 215.867 81.342 68.531z" class="cls-4" transform="translate(-.083 -.12)"/>
            <path id="패스_1726" d="M413.42 93.417s-24.243 12.44-62.244 5.238-57-37.976-57-37.976-19 30.774-57 37.976-62.244-5.238-62.244-5.238-32.105 89.7 0 168.273 119.242 105.416 119.242 105.416 87.142-26.845 119.246-105.416 0-168.273 0-168.273" class="cls-5" transform="translate(-.174 -.106)"/>
            <path id="패스_1727" d="M386.769 122.206s-18.818 9.657-48.316 4.066-44.247-29.478-44.247-29.478-14.749 23.888-44.247 29.478-48.316-4.066-48.316-4.066-24.921 69.63 0 130.62 92.563 81.827 92.563 81.827 67.643-20.839 92.563-81.827 0-130.62 0-130.62" class="cls-5" transform="translate(-.206 -.169)"/>
        </g>
    </g>
    <g id="그룹_1777" transform="translate(215.425 127.086)">
        <g id="그룹_1776" clip-path="url(#clip-path-2)">
            <path id="사각형_2109" fill="url(#linear-gradient)" d="M0 0H240.808V240.94H0z" transform="rotate(-28.194 36.914 188.035)"/>
        </g>
    </g>
    <g id="그룹_1779">
        <g id="그룹_1778" class="cls-2">
            <path id="패스_1729" fill="#c5c3d1" d="M328.179 148.391c22.574 4.179 36.974-1.92 36.974-1.92l18.539-18.293s-18.169 7.695-46.651 2.423-42.722-26.386-42.722-26.386v23.263a55.359 55.359 0 0 0 33.86 20.912" transform="translate(-.319 -.182)"/>
            <path id="패스_1730" fill="#bebdc3" d="M223.388 146.471s14.4 6.1 36.973 1.92a55.358 55.358 0 0 0 33.86-20.912v-23.264S279.982 125.328 251.5 130.6s-46.651-2.422-46.651-2.423z" transform="translate(-.222 -.182)"/>
            <path id="패스_1731" d="M224.5 244.137c-19.07-45.583-1.12-97.624-1.12-97.624l-18.541-18.293s-22.649 65.661 1.413 123.175 87.96 77.162 87.96 77.162v-23.262s-50.643-15.575-69.712-61.158" class="cls-3" transform="translate(-.211 -.224)"/>
            <path id="패스_1732" fill="#9492a1" d="M383.692 128.22l-18.54 18.293s17.952 52.041-1.12 97.624-69.714 61.158-69.714 61.158v23.262s63.9-19.65 87.961-77.162 1.413-123.175 1.413-123.175" transform="translate(-.319 -.224)"/>
            <path id="패스_1733" d="M338.565 126.236c29.5 5.591 48.316-4.066 48.316-4.066l19.882-16.81s-22.859 11.208-58.692 4.719-53.753-34.219-53.753-34.219v20.9s14.749 23.887 44.247 29.478" class="cls-11" transform="translate(-.319 -.133)"/>
            <path id="패스_1734" d="M249.95 126.236c29.5-5.591 44.247-29.478 44.247-29.478V75.86s-17.918 27.729-53.751 34.219-58.693-4.719-58.693-4.719l19.881 16.81s18.818 9.657 48.316 4.066" class="cls-11" transform="translate(-.197 -.133)"/>
            <path id="패스_1735" d="M406.763 105.412l-19.881 16.81s24.92 69.63 0 130.619-92.563 81.828-92.563 81.828v20.184s77.932-27.014 108.206-97.812 4.238-151.628 4.238-151.628" class="cls-11" transform="translate(-.319 -.184)"/>
            <path id="패스_1736" d="M201.623 252.842c-24.921-60.99 0-130.62 0-130.62l-19.881-16.809s-26.036 80.827 4.237 151.627 108.206 97.812 108.206 97.812v-20.183s-67.641-20.839-92.562-81.828" class="cls-11" transform="translate(-.185 -.184)"/>
            <path id="패스_1737" fill="#fbfbfb" d="M267.046 268.527c-1.456 0-6.206-.516-6.206-7.154v-6.037c0-7.864 7.685-16.988 23.493-27.894 14.161-9.769 21.375-20.485 21.442-31.849-.082-14.645-6.841-16.343-11.916-16.343h-.282c-7.984 0-11.528 3.673-11.528 11.908 0 3.624-2 6.053-5.347 6.5l-.1.014-8.7.422a8.215 8.215 0 0 1-.985.062 5.293 5.293 0 0 1-4.433-2.06 7.561 7.561 0 0 1-1.324-4.725c-.188-10.964 2.522-19.4 8.056-25.021 5.482-5.573 13.74-8.4 24.545-8.4h.388c21.688 0 33.152 12.875 33.152 37.233 0 16.576-6.864 30.076-20.4 40.129-8.756 6.5-13.641 10.467-16.365 12.868h30.984c4.351 0 6.947 2.6 6.947 6.944v6.885c0 4.082-2.518 6.519-6.737 6.519z" transform="translate(-.282 -.276)"/>
            <path id="패스_1738" d="M293.755 160.441h.391q30.66 0 30.654 34.737 0 23.724-19.392 38.124t-20.56 17.369h36.668q4.45 0 4.45 4.448V262q0 4.023-4.239 4.024h-54.683q-3.71 0-3.709-4.659v-6.037q0-10.378 22.414-25.841t22.52-33.889q-.1-18.853-14.412-18.853h-.319q-13.987 0-13.989 14.4 0 3.6-3.179 4.024l-8.691.423a5.788 5.788 0 0 1-.767.053q-3.26 0-3.259-4.288-.529-30.925 30.1-30.925m0-4.991c-11.5 0-20.357 3.077-26.326 9.144-6.013 6.113-8.964 15.135-8.771 26.817.02 6.816 4.455 9.235 8.254 9.235a10.561 10.561 0 0 0 1.189-.068l8.512-.414.208-.01.207-.028c4.637-.615 7.516-4.053 7.516-8.971 0-6.861 2.438-9.413 8.994-9.413h.319c3.03 0 9.331 0 9.418 13.861-.072 10.491-6.922 20.511-20.362 29.782-16.764 11.566-24.571 21.082-24.571 29.949v6.037c0 4.451 2.28 9.65 8.7 9.65h54.683c5.609 0 9.234-3.539 9.234-9.015v-6.884c0-5.734-3.708-9.439-9.445-9.439h-24.074c2.682-2.136 6.237-4.871 10.948-8.371 14.206-10.547 21.408-24.723 21.408-42.13 0-32.836-19.385-39.728-35.648-39.728h-.391z" class="cls-5" transform="translate(-.28 -.272)"/>
            <path id="패스_1739" d="M261.472 151.756c22.574-4.179 32.769-24.237 32.769-24.237a55.362 55.362 0 0 1-33.86 20.912c-22.574 4.178-36.974-1.92-36.974-1.92s15.491 9.423 38.065 5.244" class="cls-13" transform="translate(-.242 -.223)"/>
            <path id="패스_1740" d="M294.276 328.829v-23.263A131.807 131.807 0 0 1 255 283.791s24.563 18.6 39.275 45.038" class="cls-13" transform="translate(-.276 -.496)"/>
            <path id="패스_1741" d="M221.53 152.825l1.858-6.312-18.539-18.293s9.473 10.784 13.2 15.911 3.477 8.694 3.477 8.694" class="cls-13" transform="translate(-.222 -.224)"/>
            <path id="패스_1742" d="M248.859 146.5l-9.946-4.638a22.533 22.533 0 0 1-10.891-10.886l-4.642-9.939-4.641 9.939a22.537 22.537 0 0 1-10.893 10.886L197.9 146.5l9.945 4.638a22.537 22.537 0 0 1 10.893 10.886l4.641 9.939 4.642-9.939a22.533 22.533 0 0 1 10.891-10.886z" class="cls-13" transform="translate(-.214 -.212)"/>
            <path id="패스_1743" d="M218.319 105.376l-7.978-3.721a18.07 18.07 0 0 1-8.739-8.733l-3.723-7.973-3.724 7.973a18.07 18.07 0 0 1-8.739 8.733l-7.978 3.721 7.978 3.721a18.068 18.068 0 0 1 8.739 8.732l3.724 7.973 3.723-7.973a18.068 18.068 0 0 1 8.739-8.732z" class="cls-14" transform="translate(-.192 -.149)"/>
            <path id="패스_1744" d="M456.15 50.368l-6.164-2.874a13.969 13.969 0 0 1-6.751-6.747l-2.877-6.16-2.876 6.16a13.975 13.975 0 0 1-6.752 6.747l-6.164 2.874 6.164 2.875a13.975 13.975 0 0 1 6.752 6.747l2.876 6.16 2.877-6.16a13.969 13.969 0 0 1 6.751-6.747z" class="cls-14" transform="translate(-.459 -.06)"/>
            <path id="패스_1745" d="M146.271 13.473l-5.263-2.454a11.925 11.925 0 0 1-5.765-5.761L132.787 0l-2.456 5.26a11.925 11.925 0 0 1-5.765 5.761l-5.266 2.452 5.262 2.455a11.927 11.927 0 0 1 5.765 5.76l2.456 5.26 2.455-5.26a11.931 11.931 0 0 1 5.765-5.76z" class="cls-14" transform="translate(-.129)"/>
        </g>
    </g>
</svg>
