<svg xmlns="http://www.w3.org/2000/svg" width="180" height="172" viewBox="0 0 180 172">
    <defs>
        <clipPath id="clip-path">
            <path id="사각형_1747" d="M0 0H180V172H0z" class="cls-1" transform="translate(0 .129)"/>
        </clipPath>
        <style>
            .cls-1{fill:#fff}
        </style>
    </defs>
    <g id="그룹_1523" transform="translate(0 -.129)">
        <g id="그룹_1523-2" clip-path="url(#clip-path)">
            <path id="패스_1116" d="M167.476 40.114l4.476-4.468a5.07 5.07 0 0 0 0-7.17l-.686-.685.67-.668a10.225 10.225 0 0 0 0-14.48L162.276 3a10.27 10.27 0 0 0-14.506 0l-.67.669-.685-.684a5.083 5.083 0 0 0-7.182 0L99.743 42.4a5.062 5.062 0 0 0 0 7.17l5.7 5.686-62.6 62.49-12.29-12.268a17.914 17.914 0 0 0-25.305 0 17.84 17.84 0 0 0 0 25.26l36.21 36.162a17.878 17.878 0 0 0 25.306-25.261l-9.78-9.764 62.6-62.49 5.694 5.685a5.084 5.084 0 0 0 7.182 0l12.531-12.51 5.911 8.735-2.992 2.986 4.973 4.963 26.894-26.847zm-160.444 78a10.866 10.866 0 0 1 18.542-7.667l12.29 12.269 13.9 13.872A17.776 17.776 0 0 0 36.39 151.91l-26.178-26.131a10.761 10.761 0 0 1-3.181-7.667m47.08 47a10.8 10.8 0 0 1-7.681-3.177 10.8 10.8 0 0 1-2.586-4.155h20.531a10.811 10.811 0 0 1-10.263 7.334m7.68-18.514a10.752 10.752 0 0 1 2.582 4.158H43.841a10.872 10.872 0 0 1 17.948-4.162zm-9.78-19.69l-4.2-4.2 62.6-62.49 4.2 4.2zM152.743 7.961a3.23 3.23 0 0 1 4.56 0l9.661 9.645a3.214 3.214 0 0 1 0 4.552l-.67.668-14.221-14.2zM128.87 68.725l-4.314-4.307-7.073-7.061-11.388-11.367 36.729-36.664L165.6 32.061zM150.056 57.5l3.481-3.475 4.857 4.85 4.973-4.963-4.858-4.85 3.994-3.988 7.33 7.318-13.865 13.844z" class="cls-1"/>
        </g>
    </g>
</svg>
