<svg xmlns="http://www.w3.org/2000/svg" id="구성_요소_1_1" width="21.006" height="21.005" viewBox="0 0 21.006 21.005">
    <defs>
        <clipPath id="clip-path">
            <path id="사각형_1574" d="M0 0H21V21H0z" class="cls-1"/>
        </clipPath>
        <style>
            .cls-1{fill:#1b94a3}
        </style>
    </defs>
    <g id="그룹_1451" clip-path="url(#clip-path)">
        <path id="패스_834" d="M10.5 0A10.5 10.5 0 1 0 21 10.5 10.514 10.514 0 0 0 10.5 0M9.336 4.848c-.367-.022-.727-.058-1.081-.1a6.056 6.056 0 0 1 1.081-1.764zm0 2.339v2.148H7.262A16.554 16.554 0 0 1 7.563 7c.577.085 1.169.149 1.773.183m0 4.481v2.148c-.6.034-1.2.1-1.773.183a16.554 16.554 0 0 1-.3-2.331zm0 4.487v1.865a6.089 6.089 0 0 1-1.083-1.763c.355-.044.714-.08 1.083-.1m2.333 0c.367.022.728.058 1.083.1a6.115 6.115 0 0 1-1.083 1.763zm0-2.339v-2.145h2.073a16.553 16.553 0 0 1-.3 2.331c-.577-.085-1.169-.149-1.772-.183m0-4.481V7.188c.6-.034 1.195-.1 1.772-.184a16.594 16.594 0 0 1 .3 2.332zm0-4.487V2.984a6.081 6.081 0 0 1 1.081 1.762c-.355.044-.715.08-1.081.1m3.1-1.3a8.286 8.286 0 0 1 .806.562c-.163.056-.331.11-.5.161-.1-.25-.2-.491-.3-.723m-8.841.723c-.173-.05-.341-.1-.505-.161a8.464 8.464 0 0 1 .808-.562c-.107.232-.208.474-.3.723m-.647 2.24a18.893 18.893 0 0 0-.359 2.822h-2.5a8.1 8.1 0 0 1 1.3-3.386 13.454 13.454 0 0 0 1.561.563m-.359 5.155a18.893 18.893 0 0 0 .359 2.822 13.454 13.454 0 0 0-1.561.563 8.1 8.1 0 0 1-1.3-3.386zm1.007 5.062c.1.251.2.492.3.723a7.93 7.93 0 0 1-.808-.562c.164-.056.332-.11.505-.161m9.144 0c.171.051.341.1.5.161a7.914 7.914 0 0 1-.807.562c.107-.231.208-.472.3-.723m.646-2.24a18.89 18.89 0 0 0 .36-2.822h2.5a8.106 8.106 0 0 1-1.3 3.386 13.376 13.376 0 0 0-1.561-.563m.36-5.155a18.89 18.89 0 0 0-.36-2.822 13.376 13.376 0 0 0 1.561-.563 8.106 8.106 0 0 1 1.3 3.386z" class="cls-1"/>
    </g>
</svg>
